<?xml version="1.0" encoding="UTF-8"?>
<svg version="1.1" xmlns="http://www.w3.org/2000/svg" width="500" height="500">
<path d="M0 0 C2.02752556 -0.00571747 4.05504791 -0.01268699 6.08256531 -0.02079773 C11.53945341 -0.0385944 16.99617952 -0.0375861 22.45308781 -0.03185534 C27.03243286 -0.02874311 31.61174771 -0.03487855 36.19108844 -0.04089409 C47.00778945 -0.05489413 57.82441141 -0.05341649 68.64111328 -0.04199219 C79.74570123 -0.03052193 90.85004734 -0.0445788 101.95460343 -0.07138866 C111.53822712 -0.0936477 121.12177546 -0.10015999 130.70542312 -0.09431225 C136.40737566 -0.090965 142.10917338 -0.09320725 147.81110382 -0.11056328 C153.17939093 -0.12619352 158.54732398 -0.12190131 163.91559792 -0.10325813 C165.86766054 -0.09961594 167.81975037 -0.10255022 169.77178764 -0.11314392 C214.76595291 -0.33837965 255.33249833 19.11008801 287.21777344 50.40405273 C305.64891254 70.48964904 319.41961466 93.25806442 327.46777344 119.34155273 C327.70206055 120.09098145 327.93634766 120.84041016 328.17773438 121.61254883 C332.59708276 136.66813381 333.65757267 151.31865345 333.59008789 166.91430664 C333.59252241 168.91215707 333.59624808 170.91000627 333.60115051 172.90785217 C333.61047161 178.28171467 333.60120935 183.65539221 333.58781838 189.02924013 C333.57640949 194.68228423 333.58061855 200.33532048 333.58256531 205.9883728 C333.58344518 215.47494487 333.5724312 224.96144507 333.55395508 234.44799805 C333.53278003 245.38223256 333.52928209 256.31636199 333.53551704 267.25061285 C333.54123067 277.81560173 333.53554231 288.38055398 333.52434349 298.94553757 C333.51972517 303.42121439 333.51881155 307.89686861 333.52092934 312.37254715 C333.52282646 317.65045097 333.51459998 322.9282493 333.49886894 328.20612907 C333.49466207 330.13168209 333.49375097 332.05724588 333.49655914 333.98280144 C333.51418316 348.24036043 332.79508092 362.01426122 328.96777344 375.84155273 C328.75016357 376.63883789 328.53255371 377.43612305 328.30834961 378.25756836 C320.32853592 406.72333864 305.49593889 431.15329082 284.61230469 452.00561523 C283.22065382 453.39953634 281.84360292 454.80897699 280.50683594 456.25561523 C257.21624406 481.07704413 218.05207988 498.94229921 184.15259099 500.49888086 C181.95330517 500.53746631 179.75592781 500.54698294 177.55630493 500.54449463 C176.30328443 500.54895131 176.30328443 500.54895131 175.02495039 500.55349803 C172.24497609 500.56212183 169.46504517 500.56368791 166.68505859 500.56518555 C164.68355214 500.56981835 162.68204656 500.57484363 160.68054199 500.58023071 C155.25436067 500.59331575 149.82819171 500.59979254 144.40199709 500.60424137 C141.00471489 500.60717957 137.60743601 500.61128586 134.21015549 500.61574554 C123.56025891 500.6294128 112.91037 500.63908214 102.26046526 500.64294744 C90.00594705 500.64742059 77.7515408 500.66493723 65.4970566 500.69394803 C56.0002996 500.71564211 46.50357392 500.72565589 37.00679243 500.72698855 C31.34673523 500.72803144 25.68678337 500.73382805 20.02675247 500.75180817 C14.69313359 500.76842201 9.35969773 500.77038049 4.02606201 500.76166916 C2.08241659 500.76090574 0.13876079 500.76514812 -1.80485916 500.77512741 C-17.57556296 500.85126626 -32.78287518 499.4350977 -47.90722656 494.65405273 C-49.15004395 494.26890503 -49.15004395 494.26890503 -50.41796875 493.87597656 C-73.0593913 486.65114643 -94.21593776 474.65268575 -111.61035156 458.42358398 C-113.51427261 456.65321135 -115.46113808 454.99019505 -117.46972656 453.34155273 C-144.64625066 430.08350421 -163.09280858 390.388834 -166.78222656 355.40405273 C-167.14635069 348.60501959 -167.0767773 341.79060073 -167.07275391 334.98413086 C-167.07874904 332.94734453 -167.08555683 330.91056045 -167.09310913 328.8737793 C-167.11067939 323.37330221 -167.1154608 317.87288747 -167.1167407 312.37238503 C-167.11816834 308.92496225 -167.12244957 305.47755501 -167.12773514 302.03013611 C-167.1462081 289.97182216 -167.15440947 277.91355224 -167.15283203 265.85522461 C-167.15163247 254.66666106 -167.17270563 243.47829098 -167.20431936 232.28977633 C-167.23059348 222.64254757 -167.24119463 212.99538155 -167.23992121 203.34811735 C-167.2394147 197.60473531 -167.24492377 191.86152529 -167.26627731 186.11817932 C-167.28584753 180.70728061 -167.28565767 175.29671467 -167.27124405 169.88580322 C-167.26917769 167.91761277 -167.27372434 165.94940043 -167.28596497 163.98124695 C-167.43640304 138.0821748 -161.41050553 114.47348893 -149.78222656 91.40405273 C-149.33492187 90.4875293 -148.88761719 89.57100586 -148.42675781 88.62670898 C-129.06622561 50.8708324 -93.47340557 21.35609772 -53.50732422 7.62231445 C-51.25444761 6.90498302 -48.99505742 6.23394033 -46.71972656 5.59155273 C-46.07342285 5.40882813 -45.42711914 5.22610352 -44.76123047 5.0378418 C-29.80880673 1.11577574 -15.39739593 -0.03972586 0 0 Z M-42.65722656 114.27905273 C-50.39902786 123.75137432 -52.09642109 135.18912824 -52.04292297 147.09895325 C-52.04674852 148.02120797 -52.05057407 148.9434627 -52.05451554 149.89366454 C-52.06475818 152.95553642 -52.0608701 156.01721771 -52.05688477 159.07910156 C-52.0612361 161.28605827 -52.06642065 163.49301346 -52.07237244 165.69996643 C-52.08572888 171.67528029 -52.08634479 177.65053077 -52.08380914 183.62585664 C-52.08273706 188.6231333 -52.08762889 193.62039726 -52.09241456 198.61767119 C-52.10413128 211.08599026 -52.10329132 223.55428119 -52.09685775 236.02260127 C-52.09169141 246.82525144 -52.10293983 257.62781136 -52.12195597 268.43044368 C-52.1413767 279.54902131 -52.14929214 290.66756232 -52.14583272 301.78615779 C-52.14402395 308.01778261 -52.14661535 314.24932478 -52.16054726 320.48093605 C-52.17316537 326.34397172 -52.17114379 332.20682741 -52.15813637 338.06986046 C-52.15577964 340.21394793 -52.15847262 342.35804822 -52.16675949 344.50212097 C-52.2609555 368.32513421 -52.2609555 368.32513421 -40.74316406 388.62280273 C-31.45348152 397.42009928 -20.61268836 401.96624718 -7.80175781 401.63452148 C3.80538524 400.74859465 13.3867369 394.13563275 23.21777344 388.40405273 C24.58458252 387.60765381 24.58458252 387.60765381 25.97900391 386.79516602 C29.92826679 384.49114838 33.87600864 382.18459736 37.81958008 379.87084961 C45.25543034 375.51723841 52.75101245 371.28123132 60.28027344 367.09155273 C67.37014838 363.14394051 74.41511225 359.15572285 81.34692383 354.93701172 C95.6945652 346.23123511 110.3419648 338.00583488 124.96777344 329.77905273 C133.28257674 325.10033007 141.51910009 320.30425003 149.72070312 315.43017578 C157.02186218 311.09600862 164.36206661 306.83241541 171.71777344 302.59155273 C172.82483643 301.9515332 173.93189941 301.31151367 175.07250977 300.65209961 C179.56790674 298.0579367 184.06164527 295.46879185 188.62402344 292.99389648 C201.6304622 285.91995186 211.57260846 277.52690905 216.09277344 263.02905273 C218.99549283 250.65338681 217.25038942 238.48600261 210.53027344 227.59155273 C204.0925008 218.99734695 195.74804007 213.60433795 186.46777344 208.46655273 C184.74620301 207.49316391 183.02465555 206.5197328 181.30418396 205.54440308 C180.10729899 204.86644475 178.90966802 204.18980187 177.71131897 203.51443481 C170.9814775 199.72022837 164.3168815 195.81643631 157.65527344 191.90405273 C157.0481955 191.54814056 156.44111755 191.19222839 155.81564331 190.82553101 C146.32283969 185.26000239 136.88311074 179.60984848 127.4597168 173.92749023 C119.01782966 168.85119979 110.49234289 163.92900552 101.94750977 159.02856445 C94.48484964 154.73880594 87.08650921 150.35299142 79.71777344 145.90405273 C70.13155468 140.11742955 60.47053823 134.47554745 50.75927734 128.90161133 C43.67149698 124.8304999 36.6209109 120.70218218 29.59277344 116.52905273 C26.13630684 114.48421194 22.67754849 112.44328969 19.21777344 110.40405273 C18.43595703 109.9417627 17.65414062 109.47947266 16.84863281 109.00317383 C14.68618748 107.72997138 12.51615863 106.47096554 10.34277344 105.21655273 C9.73095215 104.85384277 9.11913086 104.49113281 8.48876953 104.11743164 C-9.20072667 94.02104513 -29.31726877 100.06109347 -42.65722656 114.27905273 Z " fill="#FE1ACF" transform="translate(166.7822265625,-0.404052734375)"/>
<path d="M0 0 C3.85893149 1.50070965 7.31243715 3.24531826 10.8828125 5.3515625 C11.44582565 5.68245377 12.00883881 6.01334503 12.58891296 6.35426331 C14.43626957 7.4411633 16.28063325 8.53303552 18.125 9.625 C19.42520853 10.39131331 20.7255855 11.15734091 22.02612305 11.9230957 C26.0205492 14.27677822 30.0108935 16.63731504 34 19 C34.90948395 19.53865692 34.90948395 19.53865692 35.83734131 20.0881958 C40.95368806 23.11907035 46.06868076 26.15222578 51.18212891 29.18798828 C59.41188653 34.07045605 67.67115065 38.90031007 75.94262695 43.71166992 C83.48427446 48.10345724 90.99619225 52.54391397 98.5 57 C106.93995597 62.01111148 115.39304169 66.99779371 123.875 71.9375 C124.83978271 72.49953125 125.80456543 73.0615625 126.79858398 73.640625 C128.80139645 74.80719044 130.80424555 75.973693 132.80712891 77.14013672 C148.01791299 86.00049405 163.22482617 94.86849735 178.3125 103.9375 C179.29742432 104.52273437 180.28234863 105.10796875 181.29711914 105.7109375 C182.18520264 106.24847656 183.07328613 106.78601563 183.98828125 107.33984375 C184.76727783 107.80769287 185.54627441 108.27554199 186.34887695 108.75756836 C186.89374756 109.1675708 187.43861816 109.57757324 188 110 C188 110.66 188 111.32 188 112 C186.20947266 113.27416992 186.20947266 113.27416992 183.6640625 114.73046875 C182.71547363 115.27823975 181.76688477 115.82601074 180.78955078 116.39038086 C179.74524902 116.98343018 178.70094727 117.57647949 177.625 118.1875 C176.54589355 118.80826416 175.46678711 119.42902832 174.35498047 120.06860352 C172.06255916 121.38670445 169.76885553 122.70220028 167.47265625 124.01367188 C163.08399362 126.52139165 158.70933028 129.05323269 154.33349609 131.58325195 C149.98551036 134.09603171 145.63376279 136.60226227 141.28222656 139.10888672 C135.85340062 142.23680146 130.42677993 145.36853731 125 148.5 C118.47766725 152.26363919 111.95486238 156.02644622 105.4296875 159.78515625 C94.97793801 165.80747329 84.53700452 171.84669337 74.125 177.9375 C65.44737363 183.01275355 56.73379694 188.02232455 48 193 C38.89417152 198.19068326 29.80613598 203.41038594 20.75 208.6875 C19.780625 209.25146484 18.81125 209.81542969 17.8125 210.39648438 C12.99570845 213.20968113 8.23590959 216.07404827 3.56738281 219.12817383 C2 220 2 220 0 220 C-1.18617697 215.77166289 -1.11808657 211.67921313 -1.08229065 207.31878662 C-1.07906152 206.43332161 -1.07583239 205.5478566 -1.07250541 204.63555932 C-1.06042334 201.66292038 -1.04105185 198.69037348 -1.02172852 195.71777344 C-1.01158647 193.58913371 -1.00189272 191.46049181 -0.99261475 189.33184814 C-0.96612634 183.54711561 -0.93334827 177.7624336 -0.89946485 171.97774029 C-0.86512921 165.93457997 -0.83654486 159.89139255 -0.80735779 153.84820557 C-0.75119723 142.40187451 -0.68984322 130.95557738 -0.62663645 119.5092833 C-0.55493599 106.47922859 -0.48900525 93.4491467 -0.42356598 80.41905928 C-0.28881023 53.61267092 -0.14678658 26.80632499 0 0 Z " fill="#FE1ACE" transform="translate(156,139)"/>
<path d="M0 0 C4.27950966 1.68222626 8.04054217 3.67090716 12 6 C12 6.33 12 6.66 12 7 C7.25919732 7.40635452 6.53541138 6.72124683 2 4 C1.67 74.29 1.34 144.58 1 217 C1.99 217 2.98 217 4 217 C4 216.34 4 215.68 4 215 C5.98 214.67 7.96 214.34 10 214 C6.80009492 216.74277578 3.99500618 218.6302836 0 220 C-1.18617697 215.77166289 -1.11808657 211.67921313 -1.08229065 207.31878662 C-1.07906152 206.43332161 -1.07583239 205.5478566 -1.07250541 204.63555932 C-1.06042334 201.66292038 -1.04105185 198.69037348 -1.02172852 195.71777344 C-1.01158647 193.58913371 -1.00189272 191.46049181 -0.99261475 189.33184814 C-0.96612634 183.54711561 -0.93334827 177.7624336 -0.89946485 171.97774029 C-0.86512921 165.93457997 -0.83654486 159.89139255 -0.80735779 153.84820557 C-0.75119723 142.40187451 -0.68984322 130.95557738 -0.62663645 119.5092833 C-0.55493599 106.47922859 -0.48900525 93.4491467 -0.42356598 80.41905928 C-0.28881023 53.61267092 -0.14678658 26.80632499 0 0 Z " fill="#EA53CF" transform="translate(156,139)"/>
<path d="M0 0 C0.68835938 0.00451172 1.37671875 0.00902344 2.0859375 0.01367188 C3.76566335 0.02533664 5.44534375 0.04326729 7.125 0.0625 C7.125 0.3925 7.125 0.7225 7.125 1.0625 C5.73474609 1.26166016 5.73474609 1.26166016 4.31640625 1.46484375 C3.11886719 1.64144531 1.92132813 1.81804688 0.6875 2 C-0.50746094 2.17402344 -1.70242187 2.34804688 -2.93359375 2.52734375 C-5.75455676 2.75235213 -5.75455676 2.75235213 -6.875 4.0625 C-9.24630401 4.27538515 -11.62272537 4.43223838 -14 4.5625 C-19.02289544 4.84099717 -23.91050233 5.28881205 -28.875 6.0625 C-28.875 6.7225 -28.875 7.3825 -28.875 8.0625 C-33.9243575 11.42873833 -39.92853992 12.92830898 -45.9375 13.625 C-46.906875 13.769375 -47.87625 13.91375 -48.875 14.0625 C-49.205 14.7225 -49.535 15.3825 -49.875 16.0625 C-50.535 15.4025 -51.195 14.7425 -51.875 14.0625 C-35.47354025 6.66072141 -18.26261868 -0.23005237 0 0 Z " fill="#F58AE4" transform="translate(146.875,0.9375)"/>
<path d="M0 0 C3.65573061 1.37007562 6.95467647 3.01017865 10.3125 5 C11.19550781 5.515625 12.07851563 6.03125 12.98828125 6.5625 C13.65214844 7.036875 14.31601562 7.51125 15 8 C15 8.66 15 9.32 15 10 C12.4453125 11.7265625 12.4453125 11.7265625 9.125 13.625 C8.03445313 14.25664062 6.94390625 14.88828125 5.8203125 15.5390625 C3 17 3 17 1 17 C1 16.34 1 15.68 1 15 C1.66 15 2.32 15 3 15 C3 14.01 3 13.02 3 12 C4.32 12 5.64 12 7 12 C7 11.01 7 10.02 7 9 C5.02 9.33 3.04 9.66 1 10 C1.33 9.01 1.66 8.02 2 7 C2.66 7 3.32 7 4 7 C2.86695008 3.60085025 1.87481525 2.94745549 -1 1 C-0.67 0.67 -0.34 0.34 0 0 Z " fill="#F71ECA" transform="translate(329,241)"/>
<path d="M0 0 C1.13109 3.39326999 0.8381583 4.65537049 0.07421875 8.0859375 C-0.14443848 9.09374268 -0.3630957 10.10154785 -0.58837891 11.13989258 C-0.82733887 12.20747803 -1.06629883 13.27506348 -1.3125 14.375 C-3.0085148 22.14117548 -4.5704504 29.80126524 -5.4453125 37.70703125 C-6.07840935 40.32412879 -6.93736602 41.32201939 -9 43 C-8.82669257 34.6497327 -7.46865904 26.8104648 -5.625 18.6875 C-5.31139526 17.29217041 -5.31139526 17.29217041 -4.99145508 15.86865234 C-3.70677883 10.38390333 -2.09648986 5.22896448 0 0 Z " fill="#F48BE4" transform="translate(9,109)"/>
<path d="M0 0 C-3.60875236 2.10392821 -7.22005862 4.20338301 -10.83374023 6.29882812 C-12.06133057 7.01148691 -13.2882293 7.72533846 -14.5144043 8.44042969 C-16.28251176 9.47128731 -18.05310658 10.49775292 -19.82421875 11.5234375 C-21.41882935 12.450354 -21.41882935 12.450354 -23.0456543 13.39599609 C-25.65742018 14.81400302 -28.21676024 15.96950379 -31 17 C-30.625 15.0625 -30.625 15.0625 -30 13 C-29.34 12.67 -28.68 12.34 -28 12 C-28.33 10.68 -28.66 9.36 -29 8 C-28.4225 8.165 -27.845 8.33 -27.25 8.5 C-22.88491412 9.47001908 -19.97041182 8.76462747 -16 7 C-16 6.34 -16 5.68 -16 5 C-14 3 -14 3 -11.375 2.875 C-10.59125 2.91625 -9.8075 2.9575 -9 3 C-9 2.34 -9 1.68 -9 1 C-5.47051709 -0.66670026 -3.71727674 -1.13583456 0 0 Z " fill="#F163D4" transform="translate(197,336)"/>
<path d="M0 0 C2.31 0 4.62 0 7 0 C7.66 1.32 8.32 2.64 9 4 C10.32 3.67 11.64 3.34 13 3 C13 3.99 13 4.98 13 6 C14.32 6 15.64 6 17 6 C17 6.99 17 7.98 17 9 C19.31 9 21.62 9 24 9 C24.99 11.31 25.98 13.62 27 16 C21.16721154 13.8154129 16.02619192 10.61065726 10.6875 7.4375 C9.66076172 6.83486328 8.63402344 6.23222656 7.57617188 5.61132812 C6.12114258 4.74991211 6.12114258 4.74991211 4.63671875 3.87109375 C3.74686279 3.34443115 2.85700684 2.81776855 1.94018555 2.27514648 C1.29992432 1.85434814 0.65966309 1.4335498 0 1 C0 0.67 0 0.34 0 0 Z " fill="#F36AD8" transform="translate(195,115)"/>
<path d="M0 0 C1.98 0 3.96 0 6 0 C6.33 0.66 6.66 1.32 7 2 C8.64034193 2.72904086 10.31301918 3.38655243 12 4 C12.86625 4.391875 13.7325 4.78375 14.625 5.1875 C17.1017849 6.30289415 17.1017849 6.30289415 20 5 C20.061875 5.763125 20.12375 6.52625 20.1875 7.3125 C21.25880308 10.85604096 22.84595327 11.2652743 26 13 C26.33 13.99 26.66 14.98 27 16 C21.80273246 14.02082464 17.17264511 11.35022258 12.375 8.5625 C11.51648438 8.07201172 10.65796875 7.58152344 9.7734375 7.07617188 C8.9484375 6.59857422 8.1234375 6.12097656 7.2734375 5.62890625 C6.52497559 5.19650635 5.77651367 4.76410645 5.00537109 4.31860352 C3.06573486 3.04322303 1.57012754 1.70102332 0 0 Z " fill="#F150D3" transform="translate(280,165)"/>
<path d="M0 0 C-2 1 -2 1 -5.375 0.0625 C-15.30540281 -2.53661265 -24.74442844 -1.29767454 -34 3 C-37.50045097 5.13837073 -40.75315176 7.49863305 -44 10 C-44.99 10.66 -45.98 11.32 -47 12 C-47 10.68 -47 9.36 -47 8 C-46.071875 7.566875 -45.14375 7.13375 -44.1875 6.6875 C-41.53164256 5.28145783 -39.82323803 4.32969304 -38 2 C-38 1.34 -38 0.68 -38 0 C-37.25234375 -0.13277344 -36.5046875 -0.26554687 -35.734375 -0.40234375 C-34.25710937 -0.66724609 -34.25710937 -0.66724609 -32.75 -0.9375 C-31.77546875 -1.11152344 -30.8009375 -1.28554687 -29.796875 -1.46484375 C-27.13113982 -1.93040963 -27.13113982 -1.93040963 -25.09375 -2.55078125 C-16.77503657 -4.33557984 -7.61562451 -3.7301018 0 0 Z " fill="#F580DF" transform="translate(172,101)"/>
<path d="M0 0 C0.67546875 0.20496094 1.3509375 0.40992188 2.046875 0.62109375 C2.93890625 0.89050781 3.8309375 1.15992188 4.75 1.4375 C5.63171875 1.70433594 6.5134375 1.97117187 7.421875 2.24609375 C8.27265625 2.49488281 9.1234375 2.74367188 10 3 C10.65484375 3.19207031 11.3096875 3.38414062 11.984375 3.58203125 C20.84648232 5.4197163 29.49401248 3.53369841 38 1 C38 1.66 38 2.32 38 3 C28.0288972 6.89534483 15.26556607 9.09958728 5 5.25 C2.6875 4.203125 2.6875 4.203125 1 3 C0.67 2.01 0.34 1.02 0 0 Z " fill="#F587E1" transform="translate(136,396)"/>
<path d="M0 0 C0.66 0.33 1.32 0.66 2 1 C0.30106596 6.09680211 -4.44373488 8.45712032 -9 11 C-11.82277817 11.781345 -14.04686935 11.9453124 -17 12 C-15.86494095 8.59482286 -15.4471812 8.37976225 -12.47265625 6.703125 C-11.76302734 6.30222656 -11.05339844 5.90132813 -10.32226562 5.48828125 C-9.57654297 5.07964844 -8.83082031 4.67101562 -8.0625 4.25 C-7.32064453 3.82589844 -6.57878906 3.40179688 -5.81445312 2.96484375 C-1.6907103 0.66930604 -1.6907103 0.66930604 0 0 Z " fill="#F14BD0" transform="translate(207,377)"/>
<path d="M0 0 C0 0.99 0 1.98 0 3 C-1.2065625 3.433125 -1.2065625 3.433125 -2.4375 3.875 C-5.1326468 4.73262568 -5.1326468 4.73262568 -6 7 C-7.62247159 7.70983132 -9.24907537 8.41161659 -10.89453125 9.06640625 C-14.05448937 10.46757506 -16.94952304 12.29384373 -19.88671875 14.109375 C-22.43357294 15.18272575 -23.42027509 14.76741 -26 14 C-23.31294159 12.41591638 -20.62527171 10.832873 -17.9375 9.25 C-17.18533203 8.8065625 -16.43316406 8.363125 -15.65820312 7.90625 C-14.16108775 7.02483143 -12.66288574 6.1452558 -11.16357422 5.26757812 C-9.75610943 4.44298354 -8.35132457 3.61379172 -6.94970703 2.77929688 C-2.22318673 0 -2.22318673 0 0 0 Z " fill="#EF6BD6" transform="translate(353,294)"/>
<path d="M0 0 C0.66 0.33 1.32 0.66 2 1 C1.01 2.485 1.01 2.485 0 4 C-0.99 4 -1.98 4 -3 4 C-3 5.65 -3 7.3 -3 9 C-3.66 9 -4.32 9 -5 9 C-5.66 10.32 -6.32 11.64 -7 13 C-7.99 12.67 -8.98 12.34 -10 12 C-11.67739862 12.98189187 -13.34467377 13.98133771 -15 15 C-15.66 14.67 -16.32 14.34 -17 14 C-11.5488903 8.96567535 -6.15891648 4.15057415 0 0 Z " fill="#F458D4" transform="translate(71,29)"/>
<path d="M0 0 C0 0.66 0 1.32 0 2 C-0.99 2 -1.98 2 -3 2 C-3 2.99 -3 3.98 -3 5 C-4.32 5 -5.64 5 -7 5 C-7.20625 5.61875 -7.4125 6.2375 -7.625 6.875 C-9.55539063 9.85833097 -11.65640837 10.0446881 -15 11 C-15.99 11.66 -16.98 12.32 -18 13 C-20.1875 12.625 -20.1875 12.625 -22 12 C-19.79411638 10.55862125 -17.58545003 9.12184635 -15.375 7.6875 C-14.75753906 7.28337891 -14.14007813 6.87925781 -13.50390625 6.46289062 C-3.52057927 0 -3.52057927 0 0 0 Z " fill="#F16CDA" transform="translate(95,16)"/>
<path d="M0 0 C0.33 0 0.66 0 1 0 C1.349746 6.30417167 0.04072396 11.84539417 -1.5 17.9375 C-1.73847656 18.90751953 -1.97695313 19.87753906 -2.22265625 20.87695312 C-2.80793388 23.25318032 -3.40053251 25.62732042 -4 28 C-4.33 28 -4.66 28 -5 28 C-5 24.04 -5 20.08 -5 16 C-4.34 16 -3.68 16 -3 16 C-3 13.03 -3 10.06 -3 7 C-2.01 6.67 -1.02 6.34 0 6 C0 4.02 0 2.04 0 0 Z " fill="#F178DC" transform="translate(498,354)"/>
<path d="M0 0 C1.1875 1.6875 1.1875 1.6875 2 4 C0.14577904 8.75144122 -2.57176424 9.87444683 -7 12 C-7.86625 12.9075 -8.7325 13.815 -9.625 14.75 C-10.40875 15.4925 -11.1925 16.235 -12 17 C-14.1484375 16.640625 -14.1484375 16.640625 -16 16 C-15.41992188 15.57589844 -14.83984375 15.15179688 -14.2421875 14.71484375 C-8.74566458 10.58791648 -3.13714187 6.27428373 0 0 Z " fill="#F24FD2" transform="translate(378,272)"/>
<path d="M0 0 C1.06340773 3.19736014 0.96582104 4.8981025 -0.3125 8 C-0.59480469 8.70125 -0.87710937 9.4025 -1.16796875 10.125 C-2 12 -2 12 -3.125 14 C-4.53280269 17.21783472 -4.65173712 20.51737123 -5 24 C-5.66 23.67 -6.32 23.34 -7 23 C-8.53178303 18.27580935 -7.71786264 15.50435028 -5.6484375 11.23828125 C-5.31070312 10.58214844 -4.97296875 9.92601563 -4.625 9.25 C-4.295 8.57839844 -3.965 7.90679687 -3.625 7.21484375 C-2.76449252 5.4693428 -1.88356456 3.73394359 -1 2 C-0.67 1.34 -0.34 0.68 0 0 Z " fill="#F376DE" transform="translate(18,89)"/>
<path d="M0 0 C4.78615682 0.58367766 8.59810173 2.07917167 13 4 C13.928125 4.12375 14.85625 4.2475 15.8125 4.375 C16.534375 4.58125 17.25625 4.7875 18 5 C19.3125 7.5625 19.3125 7.5625 20 10 C15.13127946 9.40440894 11.40671159 7.27522585 7.1875 4.9375 C6.49462891 4.56044922 5.80175781 4.18339844 5.08789062 3.79492188 C3.38871015 2.86916148 1.69390575 1.93537688 0 1 C0 0.67 0 0.34 0 0 Z " fill="#F476DB" transform="translate(84,478)"/>
<path d="M0 0 C6.10453258 0.51622222 10.91478414 2.48582596 16.4375 5.0625 C17.26443359 5.43955078 18.09136719 5.81660156 18.94335938 6.20507812 C20.96606979 7.12874358 22.98462257 8.06046954 25 9 C25 9.33 25 9.66 25 10 C18.15055881 9.40439642 12.13123785 7.06561892 6 4 C6 3.34 6 2.68 6 2 C3.03 1.505 3.03 1.505 0 1 C0 0.67 0 0.34 0 0 Z " fill="#F378DD" transform="translate(382,7)"/>
<path d="M0 0 C1.03253906 0.00676758 1.03253906 0.00676758 2.0859375 0.01367188 C3.76566335 0.02533664 5.44534375 0.04326729 7.125 0.0625 C7.125 0.3925 7.125 0.7225 7.125 1.0625 C5.73474609 1.26166016 5.73474609 1.26166016 4.31640625 1.46484375 C3.11886719 1.64144531 1.92132813 1.81804688 0.6875 2 C-0.50746094 2.17402344 -1.70242187 2.34804688 -2.93359375 2.52734375 C-5.75455676 2.75235213 -5.75455676 2.75235213 -6.875 4.0625 C-8.56108966 4.13455511 -10.25000659 4.14636068 -11.9375 4.125 C-12.85660156 4.11597656 -13.77570313 4.10695313 -14.72265625 4.09765625 C-15.43292969 4.08605469 -16.14320313 4.07445312 -16.875 4.0625 C-15.885 3.7325 -14.895 3.4025 -13.875 3.0625 C-13.875 2.4025 -13.875 1.7425 -13.875 1.0625 C-9.21962644 0.14157719 -4.72814567 -0.05955997 0 0 Z " fill="#E95CCD" transform="translate(146.875,0.9375)"/>
<path d="M0 0 C2.64 0 5.28 0 8 0 C8 0.99 8 1.98 8 3 C8.9075 3.28875 9.815 3.5775 10.75 3.875 C13.32202908 4.76531776 15.61346766 5.71494413 18 7 C18 7.99 18 8.98 18 10 C13.48548686 8.6510689 9.67722719 6.83381706 5.625 4.4375 C4.56539062 3.81746094 3.50578125 3.19742188 2.4140625 2.55859375 C1.61742187 2.04425781 0.82078125 1.52992187 0 1 C0 0.67 0 0.34 0 0 Z " fill="#F377DD" transform="translate(172,102)"/>
<path d="M0 0 C-0.66 1.98 -1.32 3.96 -2 6 C-2.99 6 -3.98 6 -5 6 C-5.33 6.66 -5.66 7.32 -6 8 C-6 7.34 -6 6.68 -6 6 C-7.36125 6.7734375 -7.36125 6.7734375 -8.75 7.5625 C-12.16419665 9.07262544 -12.68604014 9.08784335 -16 8 C-13.71125827 6.66141476 -11.41930344 5.32898986 -9.125 4 C-8.47402344 3.6184375 -7.82304687 3.236875 -7.15234375 2.84375 C-2.2265625 0 -2.2265625 0 0 0 Z " fill="#F147D2" transform="translate(244,357)"/>
<path d="M0 0 C0 0.66 0 1.32 0 2 C-1.2065625 2.37125 -1.2065625 2.37125 -2.4375 2.75 C-3.283125 3.1625 -4.12875 3.575 -5 4 C-5.33 5.32 -5.66 6.64 -6 8 C-9.63 8.66 -13.26 9.32 -17 10 C-14.08347941 7.08347941 -11.48495487 5.36855829 -7.9375 3.3125 C-6.87402344 2.68988281 -5.81054688 2.06726563 -4.71484375 1.42578125 C-2 0 -2 0 0 0 Z " fill="#F262D4" transform="translate(315,316)"/>
<path d="M0 0 C4.97357688 1.7342733 9.31498953 4.43327957 13.8125 7.125 C14.60076172 7.59292969 15.38902344 8.06085938 16.20117188 8.54296875 C18.13602454 9.69215397 20.06887228 10.84457003 22 12 C21.01 12.495 21.01 12.495 20 13 C17.1796875 11.78515625 17.1796875 11.78515625 13.875 10.0625 C12.77929688 9.49660156 11.68359375 8.93070313 10.5546875 8.34765625 C9.71164063 7.90292969 8.86859375 7.45820313 8 7 C8 6.34 8 5.68 8 5 C6.02 5 4.04 5 2 5 C1.34 3.35 0.68 1.7 0 0 Z " fill="#F783E5" transform="translate(222,178)"/>
<path d="M0 0 C0.33 0 0.66 0 1 0 C0.75947029 1.85551489 0.51877694 3.7110087 0.27734375 5.56640625 C0.08459382 7.25771905 -0.06604549 8.95414649 -0.18359375 10.65234375 C-0.24675781 11.53019531 -0.30992188 12.40804687 -0.375 13.3125 C-0.42398437 14.13363281 -0.47296875 14.95476562 -0.5234375 15.80078125 C-1.08584008 18.39613086 -1.98215666 19.33285136 -4 21 C-3.85761163 18.95809019 -3.71092972 16.91647955 -3.5625 14.875 C-3.48128906 13.73804688 -3.40007812 12.60109375 -3.31640625 11.4296875 C-3.02269035 8.2459522 -2.56875687 5.14489093 -2 2 C-1.34 2 -0.68 2 0 2 C0 1.34 0 0.68 0 0 Z " fill="#EC77D6" transform="translate(4,131)"/>
<path d="M0 0 C-2.40559553 1.56184188 -4.82183864 3.09898362 -7.25 4.625 C-7.93191406 5.07101562 -8.61382812 5.51703125 -9.31640625 5.9765625 C-11.18774792 7.13933791 -12.95134204 8.18815866 -15 9 C-17.421875 8.3984375 -17.421875 8.3984375 -19 7 C-19.33 6.34 -19.66 5.68 -20 5 C-17.03 5.495 -17.03 5.495 -14 6 C-14 5.34 -14 4.68 -14 4 C-11.69 3.34 -9.38 2.68 -7 2 C-7 1.34 -7 0.68 -7 0 C-3.98968256 -0.93423645 -3.13349732 -1.04449911 0 0 Z " fill="#F35AD2" transform="translate(330,259)"/>
<path d="M0 0 C3.25 -0.25 3.25 -0.25 7 0 C9 1.75 9 1.75 11 4 C12.2095566 4.72144285 13.44071407 5.40749482 14.6875 6.0625 C18 8 18 8 19 11 C14.60616294 9.40376856 10.71004193 7.21975667 6.6875 4.875 C6.04232422 4.50246094 5.39714844 4.12992188 4.73242188 3.74609375 C3.15324055 2.83367787 1.57638136 1.91724491 0 1 C0 0.67 0 0.34 0 0 Z " fill="#F069D6" transform="translate(222,131)"/>
<path d="M0 0 C4.25175683 2.17737028 6.3499392 4.46857246 8.875 8.5 C9.49117187 9.4590625 10.10734375 10.418125 10.7421875 11.40625 C12 14 12 14 11 17 C9.5345138 15.10934188 8.07765297 13.21298003 6.625 11.3125 C6.2125 10.78205078 5.8 10.25160156 5.375 9.70507812 C3.00906418 6.59501734 1.25144944 3.70621566 0 0 Z " fill="#F264D6" transform="translate(25,421)"/>
<path d="M0 0 C5.43231032 5.43231032 5.28422871 15.25021461 5.3125 22.5625 C5.31781738 23.2529541 5.32313477 23.9434082 5.32861328 24.65478516 C5.27710047 28.30857973 5.07891906 29.88162141 3 33 C3.06960938 31.38544922 3.06960938 31.38544922 3.140625 29.73828125 C3.39870411 20.93120505 2.90578985 13.86051845 -0.22265625 5.5390625 C-1 3 -1 3 0 0 Z " fill="#FBA6F2" transform="translate(380,229)"/>
<path d="M0 0 C4.12417063 1.6616804 7.06554039 4.62338018 10.25 7.625 C10.80429687 8.140625 11.35859375 8.65625 11.9296875 9.1875 C13.2902712 10.45425035 14.64565837 11.72657815 16 13 C15.67 13.66 15.34 14.32 15 15 C14.649375 14.525625 14.29875 14.05125 13.9375 13.5625 C11.15836457 11.32126175 8.4855283 11.32882342 5 11 C5 9.68 5 8.36 5 7 C3.94082766 5.03615835 3.94082766 5.03615835 2.5 3.25 C1.80390625 2.32960937 1.80390625 2.32960937 1.09375 1.390625 C0.7328125 0.93171875 0.371875 0.4728125 0 0 Z " fill="#F47ADD" transform="translate(438,37)"/>
<path d="M0 0 C1.65 0 3.3 0 5 0 C2.0761589 3.18019683 -0.83401169 5.25351309 -4.625 7.3125 C-6.06746094 8.11107422 -6.06746094 8.11107422 -7.5390625 8.92578125 C-8.35117187 9.28027344 -9.16328125 9.63476562 -10 10 C-10.66 9.67 -11.32 9.34 -12 9 C-10.625 7.5 -10.625 7.5 -9 6 C-8.34 6 -7.68 6 -7 6 C-7 5.34 -7 4.68 -7 4 C-5.68 4 -4.36 4 -3 4 C-3 3.34 -3 2.68 -3 2 C-2.01 2 -1.02 2 0 2 C0 1.34 0 0.68 0 0 Z " fill="#F06BD9" transform="translate(419,473)"/>
<path d="M0 0 C4.04301175 1.48518799 7.61146256 3.42877998 11.3125 5.625 C12.38113281 6.25664062 13.44976562 6.88828125 14.55078125 7.5390625 C15.76314453 8.26222656 15.76314453 8.26222656 17 9 C14.3333581 10.33332095 12.83319697 9.67102033 10 9 C10 8.34 10 7.68 10 7 C8.72125 6.773125 7.4425 6.54625 6.125 6.3125 C3.9140625 5.77734375 3.9140625 5.77734375 2 5 C0.5 2.375 0.5 2.375 0 0 Z " fill="#F276DA" transform="translate(205,168)"/>
<path d="M0 0 C1.98 0.66 3.96 1.32 6 2 C3.20283196 5.29078593 -0.19528578 7.06305458 -4 9 C-6 8 -6 8 -7 6 C-6.21625 5.7525 -5.4325 5.505 -4.625 5.25 C-1.67682892 3.84610901 -1.0975223 2.99324263 0 0 Z " fill="#F55DD7" transform="translate(307,266)"/>
<path d="M0 0 C4.04301175 1.48518799 7.61146256 3.42877998 11.3125 5.625 C12.38113281 6.25664062 13.44976562 6.88828125 14.55078125 7.5390625 C15.76314453 8.26222656 15.76314453 8.26222656 17 9 C15 10 15 10 13.16015625 9.51171875 C12.12181641 9.10373047 12.12181641 9.10373047 11.0625 8.6875 C10.02802734 8.29111328 10.02802734 8.29111328 8.97265625 7.88671875 C7 7 7 7 4 5 C4 4.34 4 3.68 4 3 C3.01 3 2.02 3 1 3 C0.67 2.01 0.34 1.02 0 0 Z " fill="#F278DD" transform="translate(278,211)"/>
<path d="M0 0 C11.70615034 7.11389522 11.70615034 7.11389522 16 12 C13.5625 11.625 13.5625 11.625 11 11 C10.67 10.34 10.34 9.68 10 9 C7.97536745 8.34786708 7.97536745 8.34786708 6 8 C6 7.34 6 6.68 6 6 C5.34 6 4.68 6 4 6 C4 5.34 4 4.68 4 4 C3.01 4 2.02 4 1 4 C0.67 2.68 0.34 1.36 0 0 Z " fill="#F169D7" transform="translate(422,25)"/>
<path d="M0 0 C4.04301175 1.48518799 7.61146256 3.42877998 11.3125 5.625 C12.38113281 6.25664062 13.44976562 6.88828125 14.55078125 7.5390625 C15.76314453 8.26222656 15.76314453 8.26222656 17 9 C16.01 9.495 16.01 9.495 15 10 C12.3984375 9.00390625 12.3984375 9.00390625 9.375 7.5625 C8.37210937 7.08941406 7.36921875 6.61632812 6.3359375 6.12890625 C5.56507813 5.75636719 4.79421875 5.38382813 4 5 C4 4.34 4 3.68 4 3 C2.68 3 1.36 3 0 3 C0 2.01 0 1.02 0 0 Z " fill="#F27DDD" transform="translate(300,224)"/>
<path d="M0 0 C1.8125 0.5625 1.8125 0.5625 4 2 C5.6875 5.5625 5.6875 5.5625 7 9 C7.33 9.33 7.66 9.66 8 10 C8.04063832 11.66617115 8.042721 13.33388095 8 15 C5.31874582 12.61753661 3.88576541 10.1454496 2.3125 6.9375 C1.87550781 6.05964844 1.43851563 5.18179687 0.98828125 4.27734375 C0 2 0 2 0 0 Z " fill="#F374DD" transform="translate(15,403)"/>
<path d="M0 0 C1.39195915 4.17587745 -0.17676781 6.13474776 -2 10 C-3.32 10 -4.64 10 -6 10 C-5.58578031 5.16743695 -3.53586014 3.17320782 0 0 Z " fill="#F352D3" transform="translate(43,54)"/>
<path d="M0 0 C1.32 0.33 2.64 0.66 4 1 C4 1.66 4 2.32 4 3 C4.66 3.33 5.32 3.66 6 4 C3.47211993 6.79872437 1.79588866 8.45773019 -2 9 C-1.625 7.0625 -1.625 7.0625 -1 5 C-0.34 4.67 0.32 4.34 1 4 C0.67 2.68 0.34 1.36 0 0 Z " fill="#F447CF" transform="translate(168,344)"/>
<path d="M0 0 C-2.45267635 1.53068488 -4.91133894 3.04968623 -7.375 4.5625 C-8.07367188 5.00013672 -8.77234375 5.43777344 -9.4921875 5.88867188 C-11.29185903 6.98750978 -13.14322343 8.00067867 -15 9 C-15.66 8.67 -16.32 8.34 -17 8 C-14.52414762 5.34730103 -12.40973899 3.31989897 -9 2 C-8.01 2 -7.02 2 -6 2 C-6 1.34 -6 0.68 -6 0 C-3 -1 -3 -1 0 0 Z " fill="#EE71D5" transform="translate(261,299)"/>
<path d="M0 0 C0 0.99 0 1.98 0 3 C-1.2065625 3.433125 -1.2065625 3.433125 -2.4375 3.875 C-5.1326468 4.73262568 -5.1326468 4.73262568 -6 7 C-8.64860427 7.59355614 -11.29197322 7.74209269 -14 8 C-11.72402354 5.50447597 -9.39278822 3.93377014 -6.4375 2.3125 C-5.65246094 1.87550781 -4.86742187 1.43851562 -4.05859375 0.98828125 C-2 0 -2 0 0 0 Z " fill="#F277DC" transform="translate(353,294)"/>
<path d="M0 0 C1.94113934 0.92994117 3.8777951 1.8692453 5.8125 2.8125 C6.89144531 3.33457031 7.97039062 3.85664063 9.08203125 4.39453125 C11.56579702 5.76110117 13.1799378 6.87340101 15 9 C12.36 8.67 9.72 8.34 7 8 C6.67 6.68 6.34 5.36 6 4 C4.68 4 3.36 4 2 4 C2 3.34 2 2.68 2 2 C1.34 2 0.68 2 0 2 C0 1.34 0 0.68 0 0 Z " fill="#EF70DA" transform="translate(190,159)"/>
<path d="M0 0 C0.33 0 0.66 0 1 0 C2.28297723 7.41148455 3.25515919 14.47280398 3 22 C2.67 22 2.34 22 2 22 C1.855625 20.865625 1.71125 19.73125 1.5625 18.5625 C1.38828522 15.19222799 1.38828522 15.19222799 0 14 C-0.07271741 11.64686445 -0.08370868 9.29166332 -0.0625 6.9375 C-0.05347656 5.64714844 -0.04445313 4.35679687 -0.03515625 3.02734375 C-0.02355469 2.02832031 -0.01195312 1.02929688 0 0 Z " fill="#F695E9" transform="translate(497,133)"/>
<path d="M0 0 C3.3 0.99 6.6 1.98 10 3 C10 3.66 10 4.32 10 5 C11.65 5.33 13.3 5.66 15 6 C11.37789769 7.31712811 9.32755223 6.68301982 5.8125 5.25 C4.93207031 4.90453125 4.05164063 4.5590625 3.14453125 4.203125 C1 3 1 3 0 0 Z " fill="#F15DD3" transform="translate(136,396)"/>
<path d="M0 0 C1.98 0 3.96 0 6 0 C6.33 0.66 6.66 1.32 7 2 C8.64363134 2.72159424 10.31050386 3.39351421 12 4 C12 4.99 12 5.98 12 7 C7.69235185 5.43358249 3.93828536 3.31663844 0 1 C0 0.67 0 0.34 0 0 Z " fill="#F264D4" transform="translate(280,165)"/>
<path d="M0 0 C0.66 0.33 1.32 0.66 2 1 C1 4 1 4 -2 6 C-4.04296875 6.4140625 -4.04296875 6.4140625 -6.1875 6.625 C-7.445625 6.74875 -8.70375 6.8725 -10 7 C-7.20283196 3.70921407 -3.80471422 1.93694542 0 0 Z " fill="#F27ADC" transform="translate(207,377)"/>
<path d="M0 0 C1.98 0 3.96 0 6 0 C-3.42857143 8 -3.42857143 8 -8 8 C-8 7.34 -8 6.68 -8 6 C-7.01 6 -6.02 6 -5 6 C-5 5.34 -5 4.68 -5 4 C-4.360625 3.71125 -3.72125 3.4225 -3.0625 3.125 C-0.84793921 2.17176549 -0.84793921 2.17176549 0 0 Z " fill="#EF72D7" transform="translate(269,290)"/>
<path d="M0 0 C3.3125 -0.25 3.3125 -0.25 7 0 C8.9375 1.875 8.9375 1.875 10 4 C10 4.66 10 5.32 10 6 C6.40992874 4.66654496 3.20429093 3.1056769 0 1 C0 0.67 0 0.34 0 0 Z " fill="#F26CD9" transform="translate(195,115)"/>
<path d="M0 0 C0.33 0.66 0.66 1.32 1 2 C0.34 2 -0.32 2 -1 2 C-1.433125 2.8971875 -1.433125 2.8971875 -1.875 3.8125 C-4.43181818 8.78409091 -4.43181818 8.78409091 -8.125 10.1875 C-9.548125 10.5896875 -9.548125 10.5896875 -11 11 C-7.6189962 6.86378916 -4.33409466 3.18683431 0 0 Z " fill="#EB27C2" transform="translate(56,43)"/>
<path d="M0 0 C2.64 0 5.28 0 8 0 C8 0.66 8 1.32 8 2 C2.54538831 3.38529821 -2.36718401 4.2396943 -8 4 C-8 3.67 -8 3.34 -8 3 C-5.36 2.67 -2.72 2.34 0 2 C0 1.34 0 0.68 0 0 Z " fill="#F27FDD" transform="translate(362,495)"/>
<path d="M0 0 C0 0.66 0 1.32 0 2 C-0.99 2 -1.98 2 -3 2 C-3 2.99 -3 3.98 -3 5 C-4.32 5 -5.64 5 -7 5 C-7.66 6.32 -8.32 7.64 -9 9 C-9.99 8.67 -10.98 8.34 -12 8 C-11.01 7.67 -10.02 7.34 -9 7 C-8.896875 6.38125 -8.79375 5.7625 -8.6875 5.125 C-8 3 -8 3 -5.0625 1.25 C-2 0 -2 0 0 0 Z " fill="#F354D5" transform="translate(95,16)"/>
<path d="M0 0 C0.99 0.99 1.98 1.98 3 3 C1.60667426 6.36720387 0.0210714 7.9859524 -3 10 C-3 9.01 -3 8.02 -3 7 C-2.34 7 -1.68 7 -1 7 C-1 6.01 -1 5.02 -1 4 C-1.66 3.67 -2.32 3.34 -3 3 C-2.01 2.01 -1.02 1.02 0 0 Z " fill="#F444D0" transform="translate(445,450)"/>
<path d="M0 0 C0 0.66 0 1.32 0 2 C0.99 2.33 1.98 2.66 3 3 C2.34 4.32 1.68 5.64 1 7 C-0.32 6.67 -1.64 6.34 -3 6 C-3 5.34 -3 4.68 -3 4 C-2.34 4 -1.68 4 -1 4 C-1 3.34 -1 2.68 -1 2 C-2.32 2.33 -3.64 2.66 -5 3 C-2.25 0 -2.25 0 0 0 Z " fill="#FC41DA" transform="translate(268,343)"/>
<path d="M0 0 C-1.62170379 1.00533667 -3.24747237 2.00411907 -4.875 3 C-6.23238281 3.8353125 -6.23238281 3.8353125 -7.6171875 4.6875 C-10 6 -10 6 -12 6 C-12 5.01 -12 4.02 -12 3 C-11.01 3 -10.02 3 -9 3 C-9 2.34 -9 1.68 -9 1 C-5.47051709 -0.66670026 -3.71727674 -1.13583456 0 0 Z " fill="#F06BD8" transform="translate(211,328)"/>
<path d="M0 0 C0 3.60122522 -1.17797949 5.02873556 -3.48828125 7.703125 C-5.79204004 9.67947621 -8.04101995 9.86237302 -11 10 C-7.54563567 6.40746109 -3.80635497 3.20760251 0 0 Z " fill="#F179D8" transform="translate(373,279)"/>
<path d="M0 0 C0.680625 0.391875 1.36125 0.78375 2.0625 1.1875 C-0.43255962 3.68255962 -1.61078888 3.54698376 -5.0625 3.8125 C-5.97257812 3.88726562 -6.88265625 3.96203125 -7.8203125 4.0390625 C-8.86832031 4.11253906 -8.86832031 4.11253906 -9.9375 4.1875 C-9.9375 3.5275 -9.9375 2.8675 -9.9375 2.1875 C-3.66057692 -1.0125 -3.66057692 -1.0125 0 0 Z " fill="#F738D6" transform="translate(263.9375,201.8125)"/>
<path d="M0 0 C1.25955231 3.77865693 0.48087189 5.03411786 -0.9375 8.6875 C-1.31777344 9.68136719 -1.69804687 10.67523438 -2.08984375 11.69921875 C-2.39019531 12.45847656 -2.69054687 13.21773438 -3 14 C-4.03159626 10.90521121 -3.97482862 9.47368607 -3.5625 6.3125 C-3.46066406 5.50425781 -3.35882813 4.69601562 -3.25390625 3.86328125 C-3.17011719 3.24839844 -3.08632813 2.63351562 -3 2 C-2.01 2 -1.02 2 0 2 C0 1.34 0 0.68 0 0 Z " fill="#F780E2" transform="translate(492,382)"/>
<path d="M0 0 C-5.14285714 4.42857143 -5.14285714 4.42857143 -9 5 C-8.625 2.5625 -8.625 2.5625 -8 0 C-5.13822943 -1.43088528 -3.06624227 -0.59991697 0 0 Z " fill="#F45DD6" transform="translate(244,308)"/>
<path d="M0 0 C4.38889325 0.66498383 7.9811485 2.18757677 12 4 C12 4.99 12 5.98 12 7 C7.39104317 5.68315519 3.85859765 3.84801255 0 1 C0 0.67 0 0.34 0 0 Z " fill="#F379DC" transform="translate(241,142)"/>
<path d="M0 0 C4.30764815 1.56641751 8.06171464 3.68336156 12 6 C12 6.33 12 6.66 12 7 C6.92387682 7.61528766 4.17017994 5.61658349 0 3 C0 2.01 0 1.02 0 0 Z " fill="#EF77D7" transform="translate(156,139)"/>
<path d="M0 0 C2.18614424 2.18614424 2.68256535 3.53879949 3.625 6.4375 C3.88539063 7.21996094 4.14578125 8.00242187 4.4140625 8.80859375 C5 11 5 11 5 14 C4.34 14 3.68 14 3 14 C2.49307308 12.4188708 1.99473557 10.83498617 1.5 9.25 C1.2215625 8.36828125 0.943125 7.4865625 0.65625 6.578125 C0 4 0 4 0 0 Z " fill="#F282E0" transform="translate(488,104)"/>
<path d="M0 0 C5.37992836 0.33990833 9.53273547 0.68557793 14 4 C10.22134307 5.25955231 8.96588214 4.48087189 5.3125 3.0625 C4.31863281 2.68222656 3.32476562 2.30195313 2.30078125 1.91015625 C1.54152344 1.60980469 0.78226562 1.30945313 0 1 C0 0.67 0 0.34 0 0 Z " fill="#F387E2" transform="translate(104,488)"/>
<path d="M0 0 C0.99 1.485 0.99 1.485 2 3 C2.43699219 3.65097656 2.87398438 4.30195313 3.32421875 4.97265625 C3.99904297 6.00712891 3.99904297 6.00712891 4.6875 7.0625 C5.14511719 7.75472656 5.60273437 8.44695312 6.07421875 9.16015625 C6.37972656 9.76730469 6.68523437 10.37445313 7 11 C6.67 11.66 6.34 12.32 6 13 C4 11.6875 4 11.6875 2 10 C2 9.01 2 8.02 2 7 C1.34 7 0.68 7 0 7 C0 4.69 0 2.38 0 0 Z " fill="#F27EDD" transform="translate(117,373)"/>
<path d="M0 0 C0.66 0.33 1.32 0.66 2 1 C1.01 2.485 1.01 2.485 0 4 C-0.66 4 -1.32 4 -2 4 C-2 4.66 -2 5.32 -2 6 C-4.64 6.33 -7.28 6.66 -10 7 C-6.81404865 4.36021174 -3.69029454 1.89501612 0 0 Z " fill="#F170DA" transform="translate(226,366)"/>
<path d="M0 0 C0.33 0.99 0.66 1.98 1 3 C1.99 3 2.98 3 4 3 C4 2.34 4 1.68 4 1 C5.98 0.67 7.96 0.34 10 0 C6.80009492 2.74277578 3.99500618 4.6302836 0 6 C-1.125 2.25 -1.125 2.25 0 0 Z " fill="#F187DB" transform="translate(156,353)"/>
<path d="M0 0 C5.841744 -0.35050464 9.8531808 -0.16727335 15 3 C11.34142468 4.31534494 8.91973519 3.65468309 5.25 2.5625 C4.26515625 2.27503906 3.2803125 1.98757813 2.265625 1.69140625 C1.51796875 1.46324219 0.7703125 1.23507812 0 1 C0 0.67 0 0.34 0 0 Z " fill="#F493E6" transform="translate(118,493)"/>
<path d="M0 0 C1.98 0 3.96 0 6 0 C6.66 1.65 7.32 3.3 8 5 C4.33776842 4.50510384 2.33006074 3.94323463 0 1 C0 0.67 0 0.34 0 0 Z " fill="#F35DD5" transform="translate(96,483)"/>
<path d="M0 0 C7.57142857 4.14285714 7.57142857 4.14285714 10 7 C9.67 7.99 9.34 8.98 9 10 C7.49410612 8.71520959 5.99542625 7.42195918 4.5 6.125 C3.6646875 5.40570313 2.829375 4.68640625 1.96875 3.9453125 C1.3190625 3.30335938 0.669375 2.66140625 0 2 C0 1.34 0 0.68 0 0 Z " fill="#F381DC" transform="translate(46,448)"/>
<path d="M0 0 C4.30764815 1.56641751 8.06171464 3.68336156 12 6 C9 7 9 7 6.9921875 6.328125 C6.29351562 5.97234375 5.59484375 5.6165625 4.875 5.25 C4.17117188 4.90453125 3.46734375 4.5590625 2.7421875 4.203125 C1 3 1 3 0 0 Z " fill="#F177DB" transform="translate(317,234)"/>
<path d="M0 0 C3.59391114 1.33488128 6.75490696 2.96022723 10 5 C8.375 5.6875 8.375 5.6875 6 6 C2.75 4.5625 2.75 4.5625 0 3 C0 2.01 0 1.02 0 0 Z " fill="#EF72D8" transform="translate(268,205)"/>
<path d="M0 0 C4.50802601 1.25805377 7.4912812 2.90407165 11 6 C9.02 6 7.04 6 5 6 C4.67 5.01 4.34 4.02 4 3 C3.01 3 2.02 3 1 3 C0.67 2.01 0.34 1.02 0 0 Z " fill="#F36FDC" transform="translate(407,17)"/>
<path d="M0 0 C0.721875 0.144375 1.44375 0.28875 2.1875 0.4375 C3.5796875 0.7159375 3.5796875 0.7159375 5 1 C6.66666667 1.33333333 8.33333333 1.66666667 10 2 C10 2.99 10 3.98 10 5 C6.05140217 4.4359146 3.29120954 3.2568294 0 1 C0 0.67 0 0.34 0 0 Z " fill="#F067D5" transform="translate(343,202)"/>
<path d="M0 0 C2.475 0.495 2.475 0.495 5 1 C5.33 1.99 5.66 2.98 6 4 C4.35 4.66 2.7 5.32 1 6 C0.67 4.02 0.34 2.04 0 0 Z " fill="#F71FC9" transform="translate(403,17)"/>
<path d="M0 0 C0.99 0.66 1.98 1.32 3 2 C1.55746343 5.36591866 -0.33264727 7.51047079 -3 10 C-3 8.35 -3 6.7 -3 5 C-2.34 4.67 -1.68 4.34 -1 4 C-0.34786708 1.97536745 -0.34786708 1.97536745 0 0 Z " fill="#F460D7" transform="translate(466,428)"/>
<path d="M0 0 C1.32 0.66 2.64 1.32 4 2 C3.01 2.33 2.02 2.66 1 3 C0.26676204 5.01508358 0.26676204 5.01508358 0 7 C-0.99 6.67 -1.98 6.34 -3 6 C-2.34 5.67 -1.68 5.34 -1 5 C-1.66 4.67 -2.32 4.34 -3 4 C-3 3.34 -3 2.68 -3 2 C-2.01 1.34 -1.02 0.68 0 0 Z " fill="#F71FC8" transform="translate(166,346)"/>
<path d="M0 0 C3.59391114 1.33488128 6.75490696 2.96022723 10 5 C8.375 5.6875 8.375 5.6875 6 6 C2.75 4.5625 2.75 4.5625 0 3 C0 2.01 0 1.02 0 0 Z " fill="#F073DC" transform="translate(244,191)"/>
<path d="M0 0 C0.33 0.99 0.66 1.98 1 3 C2.32 3 3.64 3 5 3 C5 3.99 5 4.98 5 6 C0.25 5.125 0.25 5.125 -2 4 C-2 3.01 -2 2.02 -2 1 C-1.34 0.67 -0.68 0.34 0 0 Z " fill="#F050CE" transform="translate(207,118)"/>
<path d="M0 0 C4.75 1.875 4.75 1.875 7 3 C7 3.66 7 4.32 7 5 C5.35 5.66 3.7 6.32 2 7 C2.33 5.68 2.66 4.36 3 3 C2.01 2.67 1.02 2.34 0 2 C0 1.34 0 0.68 0 0 Z " fill="#EB73D8" transform="translate(337,246)"/>
<path d="M0 0 C3.3 1.65 6.6 3.3 10 5 C9.01 5.495 9.01 5.495 8 6 C7.67 6.99 7.34 7.98 7 9 C6.67 8.01 6.34 7.02 6 6 C3.99983534 4.79117904 3.99983534 4.79117904 2 4 C2 3.34 2 2.68 2 2 C1.34 2 0.68 2 0 2 C0 1.34 0 0.68 0 0 Z " fill="#F368D7" transform="translate(180,153)"/>
<path d="M0 0 C3.94120709 0.56302958 6.7508723 1.6791945 10 4 C10 4.66 10 5.32 10 6 C6.40992874 4.66654496 3.20429093 3.1056769 0 1 C0 0.67 0 0.34 0 0 Z " fill="#F379DC" transform="translate(253,149)"/>
<path d="M0 0 C2.61724095 2.36797991 4.32861729 4.89600354 6 8 C6 8.66 6 9.32 6 10 C3 9 3 9 1.3125 6.6875 C0 4 0 4 0 0 Z " fill="#F274DD" transform="translate(472,74)"/>
<path d="M0 0 C2.31 0 4.62 0 7 0 C4.45394698 2.00047023 2.0335364 3.82572785 -1 5 C-1.99 4.67 -2.98 4.34 -4 4 C-2.68 3.67 -1.36 3.34 0 3 C0 2.01 0 1.02 0 0 Z " fill="#F681E5" transform="translate(400,483)"/>
<path d="M0 0 C0.99 0 1.98 0 3 0 C2.65120368 3.25543229 1.97866739 4.01873107 -0.5625 6.25 C-1.366875 6.8275 -2.17125 7.405 -3 8 C-2.37240135 5.07120629 -1.41377341 2.63904371 0 0 Z " fill="#ED5ED2" transform="translate(458,439)"/>
<path d="M0 0 C2.31 0 4.62 0 7 0 C1.85714286 4.42857143 1.85714286 4.42857143 -2 5 C-2 4.34 -2 3.68 -2 3 C-1.34 3 -0.68 3 0 3 C0 2.01 0 1.02 0 0 Z " fill="#EF5CD3" transform="translate(332,253)"/>
<path d="M0 0 C2.66666667 2.66666667 5.33333333 5.33333333 8 8 C7.67 8.66 7.34 9.32 7 10 C4.13211375 8.94844171 3.17723991 8.36380824 1.8125 5.5625 C1.544375 4.716875 1.27625 3.87125 1 3 C0.67 2.01 0.34 1.02 0 0 Z " fill="#F47CDD" transform="translate(458,56)"/>
<path d="M0 0 C1.32 0.33 2.64 0.66 4 1 C1.69 2.65 -0.62 4.3 -3 6 C-3.66 5.67 -4.32 5.34 -5 5 C-5 4.01 -5 3.02 -5 2 C-3.35 2 -1.7 2 0 2 C0 1.34 0 0.68 0 0 Z " fill="#F269D6" transform="translate(432,465)"/>
<path d="M0 0 C0.66 0.33 1.32 0.66 2 1 C1.75 2.875 1.75 2.875 1 5 C-1.0625 6.25 -1.0625 6.25 -3 7 C-2.67 5.35 -2.34 3.7 -2 2 C-1.34 2 -0.68 2 0 2 C0 1.34 0 0.68 0 0 Z " fill="#F234C7" transform="translate(453,444)"/>
<path d="M0 0 C0 0.66 0 1.32 0 2 C-0.66 2 -1.32 2 -2 2 C-2 2.66 -2 3.32 -2 4 C-4.31 4.33 -6.62 4.66 -9 5 C-2.87096774 0 -2.87096774 0 0 0 Z " fill="#F262D8" transform="translate(298,326)"/>
<path d="M0 0 C1.6415049 3.2830098 0.51888624 6.42545033 0 10 C-0.66 9.67 -1.32 9.34 -2 9 C-2.8125 6.125 -2.8125 6.125 -3 3 C-1.5625 1.125 -1.5625 1.125 0 0 Z " fill="#F654D5" transform="translate(13,103)"/>
<path d="M0 0 C-1.65 1.65 -3.3 3.3 -5 5 C-5.33 4.01 -5.66 3.02 -6 2 C-6.66 1.67 -7.32 1.34 -8 1 C-5.29120665 -0.35439668 -2.99066732 -0.06501451 0 0 Z " fill="#F25BD7" transform="translate(442,460)"/>
<path d="M0 0 C0.66 0.33 1.32 0.66 2 1 C1.67 1.66 1.34 2.32 1 3 C1.66 3.33 2.32 3.66 3 4 C1.68 4.33 0.36 4.66 -1 5 C-1 4.34 -1 3.68 -1 3 C-2.32 3.33 -3.64 3.66 -5 4 C-3.36587557 2.29159719 -2.13093906 1.06546953 0 0 Z " fill="#FA69E3" transform="translate(273,339)"/>
<path d="M0 0 C4.12751449 0.60698743 7.3321148 2.03810791 11 4 C11 4.33 11 4.66 11 5 C8.69 4.67 6.38 4.34 4 4 C4 3.34 4 2.68 4 2 C2.68 1.34 1.36 0.68 0 0 Z " fill="#F78AE4" transform="translate(396,12)"/>
<path d="M0 0 C0.33 0.66 0.66 1.32 1 2 C-0.30406884 4.01920337 -1.63823419 6.01924973 -3 8 C-3.33 8 -3.66 8 -4 8 C-4 6.35 -4 4.7 -4 3 C-3.34 3 -2.68 3 -2 3 C-2 2.34 -2 1.68 -2 1 C-1.34 0.67 -0.68 0.34 0 0 Z " fill="#F16DDC" transform="translate(477,416)"/>
<path d="M0 0 C0.33 0.66 0.66 1.32 1 2 C0.67 2.66 0.34 3.32 0 4 C-2.64 3.67 -5.28 3.34 -8 3 C-5.4345406 0.4345406 -3.52313332 0.45953913 0 0 Z " fill="#F43FCF" transform="translate(366,288)"/>
<path d="M0 0 C0.33 0 0.66 0 1 0 C1.36923077 6.52307692 1.36923077 6.52307692 -0.5 8.9375 C-0.995 9.288125 -1.49 9.63875 -2 10 C-3 8 -3 8 -2.44140625 6.0546875 C-2.15136719 5.33539063 -1.86132812 4.61609375 -1.5625 3.875 C-1.27503906 3.15054687 -0.98757813 2.42609375 -0.69140625 1.6796875 C-0.46324219 1.12539063 -0.23507812 0.57109375 0 0 Z " fill="#F491E6" transform="translate(382,262)"/>
<path d="M0 0 C3.37503669 1.1858237 5.64722731 2.27573689 8 5 C4.17902761 4.46930939 1.93828597 3.50298434 -1 1 C-0.67 0.67 -0.34 0.34 0 0 Z " fill="#EF6BD7" transform="translate(329,241)"/>
<path d="M0 0 C4.75 1.875 4.75 1.875 7 3 C7 3.66 7 4.32 7 5 C5.35 5 3.7 5 2 5 C1.34 3.35 0.68 1.7 0 0 Z " fill="#F46CDA" transform="translate(222,178)"/>
<path d="M0 0 C2.64 0 5.28 0 8 0 C8 0.99 8 1.98 8 3 C2.25 2.25 2.25 2.25 0 0 Z " fill="#F066D8" transform="translate(172,102)"/>
<path d="M0 0 C0.66 0.33 1.32 0.66 2 1 C0.02579865 3.52259061 -0.96745642 3.9929808 -4.1875 4.6875 C-5.5796875 4.8421875 -5.5796875 4.8421875 -7 5 C-2.25 1.125 -2.25 1.125 0 0 Z " fill="#F479DC" transform="translate(235,361)"/>
<path d="M0 0 C-1.98 1.32 -3.96 2.64 -6 4 C-6.66 3.67 -7.32 3.34 -8 3 C-7.67 2.01 -7.34 1.02 -7 0 C-4.05610218 -1.17755913 -3.10046087 -1.03348696 0 0 Z " fill="#F476DB" transform="translate(330,259)"/>
<path d="M0 0 C1.32 0 2.64 0 4 0 C4 0.66 4 1.32 4 2 C4.66 2 5.32 2 6 2 C5.67 3.32 5.34 4.64 5 6 C3.35 4.02 1.7 2.04 0 0 Z " fill="#F06AD9" transform="translate(368,217)"/>
<path d="" fill="#FFFFFF" transform="translate(0,0)"/>
<path d="" fill="#FFFFFF" transform="translate(0,0)"/>
<path d="" fill="#FFFFFF" transform="translate(0,0)"/>
<path d="" fill="#FFFFFF" transform="translate(0,0)"/>
<path d="" fill="#FFFFFF" transform="translate(0,0)"/>
<path d="" fill="#FFFFFF" transform="translate(0,0)"/>
<path d="" fill="#FFFFFF" transform="translate(0,0)"/>
<path d="" fill="#FFFFFF" transform="translate(0,0)"/>
<path d="" fill="#FFFFFF" transform="translate(0,0)"/>
<path d="" fill="#FFFFFF" transform="translate(0,0)"/>
<path d="" fill="#FFFFFF" transform="translate(0,0)"/>
<path d="" fill="#FFFFFF" transform="translate(0,0)"/>
<path d="" fill="#FFFFFF" transform="translate(0,0)"/>
<path d="" fill="#FFFFFF" transform="translate(0,0)"/>
</svg>
