<?xml version="1.0" encoding="UTF-8"?>
<svg version="1.1" xmlns="http://www.w3.org/2000/svg" width="262" height="98">
<path d="M0 0 C2.07199035 0.00315335 4.14254213 -0.02029219 6.21435547 -0.0456543 C8.18855469 -0.04662109 8.18855469 -0.04662109 10.20263672 -0.04760742 C11.40259277 -0.05058838 12.60254883 -0.05356934 13.83886719 -0.05664062 C19.21975653 0.53755606 23.11934869 2.63227264 26.52294922 6.81567383 C27.25964844 7.69739258 27.25964844 7.69739258 28.01123047 8.59692383 C31.49073351 13.58383373 30.4720827 20.16346079 30.50561523 25.97485352 C30.51711271 27.36167624 30.53752962 28.74845549 30.56713867 30.13500977 C30.76001346 39.17318714 30.88073074 45.22289741 24.61279297 52.05786133 C18.08666995 57.1047298 11.96734618 56.56691583 4.0690918 56.61083984 C2.62693465 56.62235375 1.18481993 56.64279674 -0.25708008 56.67236328 C-2.34762339 56.71521308 -4.43690312 56.73123129 -6.52783203 56.74145508 C-7.77604736 56.7560376 -9.0242627 56.77062012 -10.31030273 56.78564453 C-15.57501794 56.07449607 -19.35685166 53.33671417 -22.60205078 49.19067383 C-26.84768277 43.61070035 -26.01151884 37.99459211 -26.02978516 31.24975586 C-26.03945213 29.08773762 -26.07045572 26.92668607 -26.10205078 24.76489258 C-26.10858508 23.38078362 -26.11383387 21.99666788 -26.11767578 20.61254883 C-26.12702148 19.35796875 -26.13636719 18.10338867 -26.14599609 16.81079102 C-25.69448957 12.38355303 -24.3358654 9.01455816 -21.32470703 5.70629883 C-14.04233391 0.06584007 -9.13902836 -0.02914644 0 0 Z " fill="#FC1ACE" transform="translate(58.78955078125,19.684326171875)"/>
<path d="M0 0 C5.44822472 0.60736874 9.92760923 4.13211251 14.5324707 6.92822266 C15.6069043 7.54568359 16.68133789 8.16314453 17.78833008 8.79931641 C18.8034668 9.41162109 19.81860352 10.02392578 20.86450195 10.65478516 C21.79625244 11.2098877 22.72800293 11.76499023 23.68798828 12.33691406 C25.7199707 14.30322266 25.7199707 14.30322266 26.17919922 17.3984375 C25.7199707 20.30322266 25.7199707 20.30322266 23.2277832 22.42822266 C22.11145508 23.04697266 20.99512695 23.66572266 19.8449707 24.30322266 C18.64956402 24.98013969 17.45425253 25.65722487 16.2590332 26.33447266 C15.66123047 26.66318359 15.06342773 26.99189453 14.44750977 27.33056641 C11.1903145 29.16446493 8.08084783 31.2489593 4.9387207 33.27197266 C2.31379344 34.49200927 0.58310577 34.64679886 -2.2800293 34.30322266 C-5.11262505 31.47062691 -4.53841191 29.57627606 -4.5456543 25.61572266 C-4.54756775 24.95741455 -4.5494812 24.29910645 -4.55145264 23.62084961 C-4.5528138 22.22883726 -4.54912213 20.83681219 -4.54077148 19.44482422 C-4.5300703 17.31139677 -4.54066836 15.17881135 -4.5534668 13.04541016 C-4.55214519 11.69384579 -4.54958277 10.34228196 -4.5456543 8.99072266 C-4.54339844 7.75708984 -4.54114258 6.52345703 -4.53881836 5.25244141 C-4.22465189 1.67212921 -3.65819527 0.48650589 0 0 Z " fill="#FEDDFC" transform="translate(50.280029296875,30.69677734375)"/>
<path d="M0 0 C3.3 0 6.6 0 10 0 C10.99 3.3 11.98 6.6 13 10 C13.99 6.7 14.98 3.4 16 0 C19.3 0 22.6 0 26 0 C26 7.59 26 15.18 26 23 C24.02 23 22.04 23 20 23 C19.67 20.03 19.34 17.06 19 14 C18.01 16.97 17.02 19.94 16 23 C14.02 23 12.04 23 10 23 C9.01 19.7 8.02 16.4 7 13 C6.67 16.3 6.34 19.6 6 23 C4.02 23 2.04 23 0 23 C0 15.41 0 7.82 0 0 Z " fill="#F1F1F1" transform="translate(131,36)"/>
<path d="M0 0 C1.69962891 -0.04253906 1.69962891 -0.04253906 3.43359375 -0.0859375 C7.18547226 0.46677369 8.29114382 1.40022146 10.5625 4.375 C10.8925 5.365 11.2225 6.355 11.5625 7.375 C2.99107143 8.80357143 2.99107143 8.80357143 -0.4375 6.375 C-1.4275 7.035 -2.4175 7.695 -3.4375 8.375 C-3.68765873 11.95857241 -3.68765873 11.95857241 -3.4375 15.375 C-0.53149739 16.63164978 1.35854584 17.375 4.5625 17.375 C4.5625 16.715 4.5625 16.055 4.5625 15.375 C2.9125 15.375 1.2625 15.375 -0.4375 15.375 C-0.4375 13.725 -0.4375 12.075 -0.4375 10.375 C3.5225 10.375 7.4825 10.375 11.5625 10.375 C12.05078125 17.89453125 12.05078125 17.89453125 11.5625 20.375 C7.01761439 24.23101201 2.30870568 23.92073722 -3.390625 23.8046875 C-6.38367034 23.38259136 -7.58630515 23.08883488 -9.6875 21 C-12.77154225 16.37393663 -12.97873205 12.86328292 -12.4375 7.375 C-9.71182312 1.27467556 -6.46083069 0.0733352 0 0 Z " fill="#E5E5E5" transform="translate(105.4375,35.625)"/>
<path d="M0 0 C0 1.65 0 3.3 0 5 C-3.96 5 -7.92 5 -12 5 C-12 5.99 -12 6.98 -12 8 C-8.37 8 -4.74 8 -1 8 C-1 9.65 -1 11.3 -1 13 C-3.52053595 14.26026798 -4.8542098 13.91874445 -7.625 13.5625 C-8.44226563 13.46066406 -9.25953125 13.35882813 -10.1015625 13.25390625 C-10.72804687 13.17011719 -11.35453125 13.08632813 -12 13 C-12 14.65 -12 16.3 -12 18 C-8.04 18 -4.08 18 0 18 C0 19.65 0 21.3 0 23 C-6.6 23 -13.2 23 -20 23 C-20 15.41 -20 7.82 -20 0 C-12.4075429 -0.69022337 -7.21971751 -1.06520422 0 0 Z " fill="#F6F6F6" transform="translate(181,36)"/>
<path d="M0 0 C1.86785156 0.15275391 1.86785156 0.15275391 3.7734375 0.30859375 C5.18496094 0.43427734 5.18496094 0.43427734 6.625 0.5625 C6.625 2.2125 6.625 3.8625 6.625 5.5625 C2.665 5.5625 -1.295 5.5625 -5.375 5.5625 C-5.375 6.5525 -5.375 7.5425 -5.375 8.5625 C-1.745 8.5625 1.885 8.5625 5.625 8.5625 C5.625 10.2125 5.625 11.8625 5.625 13.5625 C1.995 13.5625 -1.635 13.5625 -5.375 13.5625 C-5.375 15.2125 -5.375 16.8625 -5.375 18.5625 C-1.415 18.5625 2.545 18.5625 6.625 18.5625 C6.625 20.2125 6.625 21.8625 6.625 23.5625 C0.025 23.5625 -6.575 23.5625 -13.375 23.5625 C-13.375 15.9725 -13.375 8.3825 -13.375 0.5625 C-8.39694681 -0.26717553 -4.92104375 -0.41782447 0 0 Z " fill="#F5F5F5" transform="translate(197.375,35.4375)"/>
<path d="M0 0 C0.33 0.99 0.66 1.98 1 3 C0.01 4.485 0.01 4.485 -1 6 C-1.37032217 9.29770342 -1.37032217 9.29770342 -1.4140625 13.07421875 C-1.43342865 13.7580513 -1.4527948 14.44188385 -1.4727478 15.1464386 C-1.53243997 17.32666625 -1.57888631 19.50694702 -1.625 21.6875 C-1.66318943 23.1673405 -1.70224174 24.647159 -1.7421875 26.12695312 C-1.83813202 29.7511005 -1.92220151 33.37541257 -2 37 C-0.02 37.66 1.96 38.32 4 39 C4 38.01 4 37.02 4 36 C4.99 35.505 4.99 35.505 6 35 C6.02505615 34.22809326 6.0501123 33.45618652 6.07592773 32.66088867 C6.19184007 29.16958819 6.31458824 25.67856078 6.4375 22.1875 C6.47681641 20.97255859 6.51613281 19.75761719 6.55664062 18.50585938 C6.59853516 17.34248047 6.64042969 16.17910156 6.68359375 14.98046875 C6.72025146 13.90692139 6.75690918 12.83337402 6.79467773 11.72729492 C7 9 7 9 8 6 C8.66 6.33 9.32 6.66 10 7 C9.99476318 7.90355225 9.98952637 8.80710449 9.98413086 9.73803711 C9.96712314 13.07951489 9.95456667 16.42094692 9.94506836 19.76245117 C9.94002899 21.21070073 9.93319747 22.65894517 9.92456055 24.10717773 C9.91247753 26.18474588 9.90676789 28.26224697 9.90234375 30.33984375 C9.89710693 31.59144287 9.89187012 32.84304199 9.88647461 34.13256836 C9.67112965 36.89732294 9.67112965 36.89732294 11 38 C15.3174126 38.47971251 17.39476117 37.24109441 21 35 C21.66 35.33 22.32 35.66 23 36 C18.48649253 39.52273754 15.71658336 40.45732667 10 40 C9.34 41.32 8.68 42.64 8 44 C7.34 44 6.68 44 6 44 C6.33 44.66 6.66 45.32 7 46 C7.99 46.33 8.98 46.66 10 47 C10 47.66 10 48.32 10 49 C20.56 48.67 31.12 48.34 42 48 C37.15808749 51.22794167 31.52436435 50.37189153 25.85864258 50.37060547 C23.70507882 50.37496442 21.55358986 50.41124867 19.40039062 50.44921875 C18.0208403 50.45509033 16.64128029 50.45905744 15.26171875 50.4609375 C13.38939575 50.47326416 13.38939575 50.47326416 11.47924805 50.48583984 C4.66134319 49.53379222 0.94889882 45.1899813 -3 40 C-5.18073346 35.63853309 -4.22710971 29.78036277 -4.24023438 24.93408203 C-4.24990135 22.7720638 -4.28090494 20.61101224 -4.3125 18.44921875 C-4.3190343 17.06510979 -4.32428309 15.68099405 -4.328125 14.296875 C-4.3374707 13.04229492 -4.34681641 11.78771484 -4.35644531 10.49511719 C-3.95098347 6.51936947 -2.9080125 2.9080125 0 0 Z " fill="#F029C6" transform="translate(37,26)"/>
<path d="M0 0 C2.31 0.33 4.62 0.66 7 1 C7 10.24 7 19.48 7 29 C6.01 29.33 5.02 29.66 4 30 C4 30.99 4 31.98 4 33 C2.02 32.34 0.04 31.68 -2 31 C-2.04939115 26.90661348 -2.08571501 22.81334202 -2.10986328 18.71972656 C-2.11992877 17.32679219 -2.13358234 15.93387898 -2.15087891 14.54101562 C-2.1751022 12.5404564 -2.18540814 10.53974385 -2.1953125 8.5390625 C-2.20578613 7.33459473 -2.21625977 6.13012695 -2.22705078 4.88916016 C-2 2 -2 2 0 0 Z " fill="#FD19CF" transform="translate(37,32)"/>
<path d="M0 0 C1.19882813 0.07250977 1.19882813 0.07250977 2.421875 0.14648438 C3.246875 0.20255859 4.071875 0.25863281 4.921875 0.31640625 C5.76234375 0.36861328 6.6028125 0.42082031 7.46875 0.47460938 C9.5368102 0.60386314 11.6043972 0.74064899 13.671875 0.87890625 C13.671875 2.52890625 13.671875 4.17890625 13.671875 5.87890625 C11.361875 5.87890625 9.051875 5.87890625 6.671875 5.87890625 C6.671875 11.81890625 6.671875 17.75890625 6.671875 23.87890625 C4.031875 23.87890625 1.391875 23.87890625 -1.328125 23.87890625 C-2.55992749 17.71989382 -2.05843408 12.09215123 -1.328125 5.87890625 C-3.638125 5.87890625 -5.948125 5.87890625 -8.328125 5.87890625 C-8.328125 4.22890625 -8.328125 2.57890625 -8.328125 0.87890625 C-5.42143038 0.02585457 -3.01763627 -0.1939909 0 0 Z " fill="#EEEEEE" transform="translate(213.328125,35.12109375)"/>
<path d="M0 0 C6.625 3.8125 6.625 3.8125 8.67431641 4.99536133 C12.39139241 7.12659312 16.14679821 9.12082312 20 11 C20 11.66 20 12.32 20 13 C17.04550087 14.6735337 14.0857982 16.33763985 11.125 18 C10.28324219 18.47695313 9.44148438 18.95390625 8.57421875 19.4453125 C7.36572266 20.12207031 7.36572266 20.12207031 6.1328125 20.8125 C5.38918457 21.23144531 4.64555664 21.65039062 3.87939453 22.08203125 C2 23 2 23 0 23 C0 15.41 0 7.82 0 0 Z " fill="#F220C8" transform="translate(51,36)"/>
<path d="M0 0 C2.00720923 0.28674418 4.0085944 0.61866701 6 1 C5.67 1.66 5.34 2.32 5 3 C4.34 3 3.68 3 3 3 C3 11.58 3 20.16 3 29 C4.98 28.34 6.96 27.68 9 27 C7.125 31.875 7.125 31.875 6 33 C3.5625 33.1875 3.5625 33.1875 1 33 C-1 31 -1 31 -1.24291992 28.03491211 C-1.23881104 26.79491455 -1.23470215 25.55491699 -1.23046875 24.27734375 C-1.23001053 23.61666397 -1.22955231 22.95598419 -1.2290802 22.27528381 C-1.22605921 20.87906091 -1.21817742 19.48284133 -1.20581055 18.08666992 C-1.18754196 15.94242502 -1.18530094 13.79861151 -1.18554688 11.65429688 C-1.14743212 1.14743212 -1.14743212 1.14743212 0 0 Z " fill="#FEF7FD" transform="translate(47,32)"/>
<path d="M0 0 C2.97 0.33 5.94 0.66 9 1 C9 1.66 9 2.32 9 3 C10.98 3.66 12.96 4.32 15 5 C15.33 4.34 15.66 3.68 16 3 C17.32 3.66 18.64 4.32 20 5 C20.99 4.34 21.98 3.68 23 3 C23.33 5.64 23.66 8.28 24 11 C25.65 11.66 27.3 12.32 29 13 C29.49062345 16.12772449 29.69470128 18.8945816 29 22 C26.67136375 24.37648494 24.14023519 25.90280939 21 27 C20.34 26.67 19.68 26.34 19 26 C19.86625 25.56300781 19.86625 25.56300781 20.75 25.1171875 C21.4925 24.70726563 22.235 24.29734375 23 23.875 C23.7425 23.48054688 24.485 23.08609375 25.25 22.6796875 C27.29587328 21.06345647 27.29587328 21.06345647 27.39916992 18.10717773 C27.31997322 14.91703646 27.31997322 14.91703646 25.05981445 13.14135742 C24.1699585 12.63451416 23.28010254 12.1276709 22.36328125 11.60546875 C20.90825195 10.76145508 20.90825195 10.76145508 19.42382812 9.90039062 C18.39708984 9.33513672 17.37035156 8.76988281 16.3125 8.1875 C15.30509766 7.60291016 14.29769531 7.01832031 13.25976562 6.41601562 C8.83100752 3.8932313 5.0868513 1.77250506 0 1 C0 0.67 0 0.34 0 0 Z " fill="#EC2CC3" transform="translate(48,30)"/>
<path d="M0 0 C0.33 0.99 0.66 1.98 1 3 C0.01 4.485 0.01 4.485 -1 6 C-1.37032217 9.29770342 -1.37032217 9.29770342 -1.4140625 13.07421875 C-1.43342865 13.7580513 -1.4527948 14.44188385 -1.4727478 15.1464386 C-1.53243997 17.32666625 -1.57888631 19.50694702 -1.625 21.6875 C-1.66318943 23.1673405 -1.70224174 24.647159 -1.7421875 26.12695312 C-1.83813202 29.7511005 -1.92220151 33.37541257 -2 37 C-1.34 37.33 -0.68 37.66 0 38 C0.625 41.0625 0.625 41.0625 1 44 C-3.93368241 39.22546863 -3.93368241 39.22546863 -4.16113281 35.02246094 C-4.19841153 31.65957382 -4.23112653 28.29715396 -4.24023438 24.93408203 C-4.24990135 22.7720638 -4.28090494 20.61101224 -4.3125 18.44921875 C-4.3190343 17.06510979 -4.32428309 15.68099405 -4.328125 14.296875 C-4.3374707 13.04229492 -4.34681641 11.78771484 -4.35644531 10.49511719 C-3.95098347 6.51936947 -2.9080125 2.9080125 0 0 Z " fill="#C226A2" transform="translate(37,26)"/>
<path d="M0 0 C4.72839767 -0.4912621 7.33072754 1.04967849 11.3125 3.5 C12.38113281 4.1496875 13.44976562 4.799375 14.55078125 5.46875 C15.76314453 6.22671875 15.76314453 6.22671875 17 7 C16.01 7.33 15.02 7.66 14 8 C13.01 8.495 13.01 8.495 12 9 C9 9 9 9 4 6 C4 13.59 4 21.18 4 29 C3.34 29 2.68 29 2 29 C2 20.75 2 12.5 2 4 C2.66 3.67 3.32 3.34 4 3 C2.68 2.01 1.36 1.02 0 0 Z " fill="#FEC1F6" transform="translate(48,31)"/>
<path d="M0 0 C1.31355469 -0.00386719 2.62710938 -0.00773437 3.98046875 -0.01171875 C4.66254395 -0.00543457 5.34461914 0.00084961 6.04736328 0.00732422 C8.11949089 0.02333457 10.18965286 0.00748985 12.26171875 -0.01171875 C13.57785156 -0.00785156 14.89398438 -0.00398438 16.25 0 C18.04993408 0.00507568 18.04993408 0.00507568 19.88623047 0.01025391 C23.64853552 0.44342299 26.04777453 1.41221557 29.2578125 3.3984375 C29.9178125 4.3884375 30.5778125 5.3784375 31.2578125 6.3984375 C28.7828125 5.9034375 28.7828125 5.9034375 26.2578125 5.3984375 C26.2578125 4.7384375 26.2578125 4.0784375 26.2578125 3.3984375 C22.26051999 2.6524639 18.47850627 2.27031371 14.4140625 2.265625 C13.33253906 2.26433594 12.25101563 2.26304688 11.13671875 2.26171875 C10.02167969 2.26558594 8.90664063 2.26945312 7.7578125 2.2734375 C6.64277344 2.26957031 5.52773438 2.26570313 4.37890625 2.26171875 C2.75662109 2.26365234 2.75662109 2.26365234 1.1015625 2.265625 C0.12380859 2.26675293 -0.85394531 2.26788086 -1.86132812 2.26904297 C-4.88885786 2.40502524 -7.76539188 2.84290874 -10.7421875 3.3984375 C-7.26672908 0.15087799 -4.67374144 0.01320444 0 0 Z " fill="#CB2BAA" transform="translate(52.7421875,19.6015625)"/>
<path d="M0 0 C2.31 0.33 4.62 0.66 7 1 C7 1.66 7 2.32 7 3 C17.56 2.67 28.12 2.34 39 2 C34.14776944 5.23482037 28.48111771 4.33302217 22.80371094 4.31567383 C20.63945831 4.31252106 18.47658294 4.33595238 16.3125 4.36132812 C14.92968922 4.36360206 13.54687477 4.36430418 12.1640625 4.36328125 C10.28388428 4.36775269 10.28388428 4.36775269 8.36572266 4.37231445 C4.78112563 3.97578823 2.86364881 3.14858827 0 1 C0 0.67 0 0.34 0 0 Z " fill="#C72BA6" transform="translate(40,72)"/>
<path d="M0 0 C3.3 0 6.6 0 10 0 C10 1.65 10 3.3 10 5 C6.7 5 3.4 5 0 5 C0 3.35 0 1.7 0 0 Z " fill="#F0F0F0" transform="translate(119,48)"/>
<path d="M0 0 C3.5072372 3.28096383 4.93261767 5.16328811 5.11352539 10.09448242 C5.10828857 11.33560791 5.10305176 12.5767334 5.09765625 13.85546875 C5.0962413 14.51710526 5.09482635 15.17874176 5.09336853 15.86042786 C5.08777996 17.96949828 5.07522965 20.07846177 5.0625 22.1875 C5.05748352 23.61913909 5.05292087 25.05077985 5.04882812 26.48242188 C5.0378143 29.98831588 5.02055755 33.4941475 5 37 C4.67 37 4.34 37 4 37 C3.67 27.43 3.34 17.86 3 8 C2.34 7.67 1.68 7.34 1 7 C0.59270772 4.67843403 0.25561323 2.3431213 0 0 Z " fill="#BD37A1" transform="translate(84,26)"/>
<path d="M0 0 C0.33 0 0.66 0 1 0 C1.02505615 0.80219971 1.0501123 1.60439941 1.07592773 2.4309082 C1.19182043 6.05827074 1.31457751 9.68536917 1.4375 13.3125 C1.47681641 14.57513672 1.51613281 15.83777344 1.55664062 17.13867188 C1.59853516 18.34716797 1.64042969 19.55566406 1.68359375 20.80078125 C1.72025146 21.91622314 1.75690918 23.03166504 1.79467773 24.1809082 C1.88931209 27.07873571 1.88931209 27.07873571 3 30 C5.00016466 31.20882096 5.00016466 31.20882096 7 32 C4.625 32.125 4.625 32.125 2 32 C0 30 0 30 -0.22705078 27.01904297 C-0.21657715 25.77268066 -0.20610352 24.52631836 -0.1953125 23.2421875 C-0.1924826 22.57913605 -0.18965271 21.91608459 -0.18673706 21.23294067 C-0.17553435 19.11344417 -0.15043051 16.99436896 -0.125 14.875 C-0.11497028 13.43880818 -0.10584441 12.00260975 -0.09765625 10.56640625 C-0.075595 7.04413372 -0.04106494 3.52210797 0 0 Z " fill="#FEE3FE" transform="translate(46,33)"/>
<path d="M0 0 C1.09658936 3.28976808 0.79953138 4.71303767 0 8 C-0.66 7.34 -1.32 6.68 -2 6 C-4.21072977 5.75746187 -4.21072977 5.75746187 -6.625 5.875 C-7.85089844 5.90207031 -7.85089844 5.90207031 -9.1015625 5.9296875 C-10.04128906 5.96449219 -10.04128906 5.96449219 -11 6 C-8.7991151 3.52140092 -6.93627031 2.38789634 -3.8125 1.3125 C-3.09707031 1.06113281 -2.38164063 0.80976562 -1.64453125 0.55078125 C-1.10183594 0.36902344 -0.55914062 0.18726563 0 0 Z M-8 6 C-6 7 -6 7 -6 7 Z " fill="#FB1BCC" transform="translate(71,55)"/>
<path d="M0 0 C0.99 0 1.98 0 3 0 C3 1.98 3 3.96 3 6 C-1.455 7.485 -1.455 7.485 -6 9 C-6 8.01 -6 7.02 -6 6 C-5.195625 5.7525 -4.39125 5.505 -3.5625 5.25 C-0.828919 4.27761141 -0.828919 4.27761141 -0.1875 1.875 C-0.125625 1.25625 -0.06375 0.6375 0 0 Z " fill="#FDF3FE" transform="translate(72,46)"/>
<path d="M0 0 C2.475 0.495 2.475 0.495 5 1 C5.33 2.32 5.66 3.64 6 5 C7.32 4.67 8.64 4.34 10 4 C10.33 4.66 10.66 5.32 11 6 C7.77208445 8.1519437 6.71599191 8.20086443 3 8 C1.75453595 5.50907189 2.2232422 4.58919267 3 2 C2.01 2 1.02 2 0 2 C0 1.34 0 0.68 0 0 Z " fill="#FD19D1" transform="translate(57,43)"/>
<path d="M0 0 C3.3 1.65 6.6 3.3 10 5 C10 5.66 10 6.32 10 7 C8.02 7.66 6.04 8.32 4 9 C4.66 8.01 5.32 7.02 6 6 C4.35 6.33 2.7 6.66 1 7 C0.67 4.69 0.34 2.38 0 0 Z " fill="#E734C0" transform="translate(61,42)"/>
<path d="M0 0 C0.99 0.33 1.98 0.66 3 1 C1.60846256 5.42761914 -0.52071486 7.9556255 -4 11 C-4.66 11 -5.32 11 -6 11 C-6 10.01 -6 9.02 -6 8 C-5.01 8 -4.02 8 -3 8 C-3 6.68 -3 5.36 -3 4 C-2.34 4 -1.68 4 -1 4 C-0.67 2.68 -0.34 1.36 0 0 Z " fill="#BF1E9C" transform="translate(85,63)"/>
<path d="M0 0 C2.31 0.66 4.62 1.32 7 2 C4.60490662 4.89932357 2.68754757 5.50168276 -1 6 C-1.042721 4.33388095 -1.04063832 2.66617115 -1 1 C-0.67 0.67 -0.34 0.34 0 0 Z " fill="#F226C9" transform="translate(58,49)"/>
<path d="M0 0 C4.4571874 0.26218749 6.51522698 0.57711289 9.9375 3.5625 C10.618125 4.366875 11.29875 5.17125 12 6 C10.35 5.67 8.7 5.34 7 5 C7 4.34 7 3.68 7 3 C6.030625 2.87625 5.06125 2.7525 4.0625 2.625 C3.051875 2.41875 2.04125 2.2125 1 2 C0.67 1.34 0.34 0.68 0 0 Z " fill="#B21F92" transform="translate(72,20)"/>
<path d="M0 0 C3.12270126 2.51830747 3.94523098 3.7261549 4.75 7.75 C4.8325 8.8225 4.915 9.895 5 11 C1.87729874 8.48169253 1.05476902 7.2738451 0.25 3.25 C0.1675 2.1775 0.085 1.105 0 0 Z " fill="#AA1E8F" transform="translate(84,26)"/>
<path d="M0 0 C0.33 0 0.66 0 1 0 C1.2475 1.27875 1.495 2.5575 1.75 3.875 C2.51990586 7.26747318 2.51990586 7.26747318 5.125 9.5 C5.74375 9.665 6.3625 9.83 7 10 C4.625 10.125 4.625 10.125 2 10 C0 8 0 8 -0.1953125 6.0546875 C-0.13020833 4.03645833 -0.06510417 2.01822917 0 0 Z " fill="#FED1FB" transform="translate(46,55)"/>
<path d="M0 0 C0.99 0.33 1.98 0.66 3 1 C3 1.66 3 2.32 3 3 C-2.75 4.125 -2.75 4.125 -5 3 C-2.6875 1.4375 -2.6875 1.4375 0 0 Z M-2 4 C0 5 0 5 0 5 Z " fill="#ED27C3" transform="translate(65,57)"/>
<path d="M0 0 C1.67542976 0.28604898 3.34385343 0.61781233 5 1 C5.33 1.99 5.66 2.98 6 4 C4.02 4 2.04 4 0 4 C-0.33 3.01 -0.66 2.02 -1 1 C-0.67 0.67 -0.34 0.34 0 0 Z " fill="#FEF1FE" transform="translate(60,38)"/>
<path d="M0 0 C2.31 0.33 4.62 0.66 7 1 C7 1.66 7 2.32 7 3 C7.66 3.33 8.32 3.66 9 4 C3.46153846 3.38461538 3.46153846 3.38461538 1.125 1.4375 C0.75375 0.963125 0.3825 0.48875 0 0 Z " fill="#9B1B83" transform="translate(40,72)"/>
<path d="" fill="#000000" transform="translate(0,0)"/>
<path d="" fill="#000000" transform="translate(0,0)"/>
<path d="" fill="#000000" transform="translate(0,0)"/>
<path d="" fill="#000000" transform="translate(0,0)"/>
<path d="" fill="#000000" transform="translate(0,0)"/>
<path d="" fill="#000000" transform="translate(0,0)"/>
<path d="" fill="#000000" transform="translate(0,0)"/>
<path d="" fill="#000000" transform="translate(0,0)"/>
<path d="" fill="#000000" transform="translate(0,0)"/>
<path d="" fill="#000000" transform="translate(0,0)"/>
<path d="" fill="#000000" transform="translate(0,0)"/>
<path d="" fill="#000100" transform="translate(0,0)"/>
<path d="" fill="#000000" transform="translate(0,0)"/>
<path d="" fill="#000000" transform="translate(0,0)"/>
<path d="" fill="#000000" transform="translate(0,0)"/>
<path d="" fill="#000000" transform="translate(0,0)"/>
<path d="" fill="#000000" transform="translate(0,0)"/>
<path d="" fill="#000000" transform="translate(0,0)"/>
<path d="" fill="#000000" transform="translate(0,0)"/>
<path d="" fill="#000000" transform="translate(0,0)"/>
<path d="" fill="#000000" transform="translate(0,0)"/>
<path d="" fill="#000000" transform="translate(0,0)"/>
<path d="" fill="#000000" transform="translate(0,0)"/>
<path d="" fill="#000000" transform="translate(0,0)"/>
<path d="" fill="#000000" transform="translate(0,0)"/>
<path d="" fill="#000000" transform="translate(0,0)"/>
<path d="" fill="#000000" transform="translate(0,0)"/>
<path d="" fill="#000000" transform="translate(0,0)"/>
<path d="" fill="#000000" transform="translate(0,0)"/>
<path d="" fill="#000000" transform="translate(0,0)"/>
<path d="" fill="#000000" transform="translate(0,0)"/>
<path d="" fill="#000000" transform="translate(0,0)"/>
<path d="" fill="#000000" transform="translate(0,0)"/>
<path d="" fill="#000000" transform="translate(0,0)"/>
<path d="" fill="#000000" transform="translate(0,0)"/>
<path d="" fill="#000100" transform="translate(0,0)"/>
<path d="" fill="#000000" transform="translate(0,0)"/>
<path d="" fill="#000000" transform="translate(0,0)"/>
<path d="" fill="#000000" transform="translate(0,0)"/>
<path d="" fill="#000000" transform="translate(0,0)"/>
<path d="" fill="#000000" transform="translate(0,0)"/>
<path d="" fill="#000000" transform="translate(0,0)"/>
<path d="" fill="#000000" transform="translate(0,0)"/>
<path d="" fill="#000000" transform="translate(0,0)"/>
<path d="" fill="#000000" transform="translate(0,0)"/>
<path d="" fill="#000000" transform="translate(0,0)"/>
<path d="" fill="#000000" transform="translate(0,0)"/>
<path d="" fill="#000000" transform="translate(0,0)"/>
<path d="" fill="#000000" transform="translate(0,0)"/>
<path d="" fill="#000000" transform="translate(0,0)"/>
<path d="" fill="#000000" transform="translate(0,0)"/>
<path d="" fill="#000000" transform="translate(0,0)"/>
<path d="" fill="#000000" transform="translate(0,0)"/>
<path d="" fill="#000000" transform="translate(0,0)"/>
<path d="" fill="#000000" transform="translate(0,0)"/>
<path d="" fill="#000000" transform="translate(0,0)"/>
<path d="" fill="#000000" transform="translate(0,0)"/>
<path d="" fill="#000000" transform="translate(0,0)"/>
<path d="" fill="#000000" transform="translate(0,0)"/>
<path d="" fill="#000000" transform="translate(0,0)"/>
<path d="" fill="#000000" transform="translate(0,0)"/>
<path d="" fill="#000000" transform="translate(0,0)"/>
<path d="" fill="#000000" transform="translate(0,0)"/>
<path d="" fill="#000000" transform="translate(0,0)"/>
<path d="" fill="#000000" transform="translate(0,0)"/>
<path d="" fill="#000000" transform="translate(0,0)"/>
<path d="" fill="#000000" transform="translate(0,0)"/>
<path d="" fill="#000000" transform="translate(0,0)"/>
<path d="" fill="#000000" transform="translate(0,0)"/>
<path d="" fill="#000000" transform="translate(0,0)"/>
<path d="" fill="#000000" transform="translate(0,0)"/>
<path d="" fill="#000000" transform="translate(0,0)"/>
<path d="" fill="#000000" transform="translate(0,0)"/>
<path d="" fill="#000000" transform="translate(0,0)"/>
<path d="" fill="#000000" transform="translate(0,0)"/>
<path d="" fill="#000000" transform="translate(0,0)"/>
<path d="" fill="#000000" transform="translate(0,0)"/>
<path d="" fill="#000000" transform="translate(0,0)"/>
<path d="" fill="#000000" transform="translate(0,0)"/>
</svg>
